<svg width="158" height="46" viewBox="0 0 158 46" fill="none" xmlns="http://www.w3.org/2000/svg">
<path d="M156.122 40.3806C156.122 42.2407 154.579 43.7833 152.623 43.7833H5.38294C3.42641 43.7833 1.87781 42.2389 1.87781 40.3806V5.26985C1.87781 3.41086 3.4283 1.86133 5.38294 1.86133H152.622C154.577 1.86133 156.121 3.40885 156.121 5.26985L156.122 40.3806Z" stroke="white" stroke-width="2"/>
<path d="M35.261 22.5757C35.227 18.8979 38.3496 17.1086 38.4924 17.0253C36.7239 14.5115 33.9829 14.168 33.0197 14.1406C30.7176 13.9044 28.4845 15.4837 27.3118 15.4837C26.1157 15.4837 24.3098 14.1634 22.3635 14.2022C19.8589 14.2399 17.5158 15.6537 16.2307 17.8492C13.5787 22.3258 15.5566 28.9043 18.0975 32.5228C19.3685 34.2949 20.8537 36.2736 22.7977 36.204C24.6995 36.1275 25.41 35.0218 27.7051 35.0218C29.9791 35.0218 30.6462 36.204 32.6288 36.1595C34.6699 36.1275 35.955 34.3793 37.1815 32.5912C38.6504 30.56 39.2402 28.5597 39.2636 28.457C39.2156 28.441 35.2996 26.9838 35.261 22.5757Z" fill="white"/>
<path d="M31.5158 11.7602C32.5387 10.513 33.2386 8.81617 33.0443 7.09424C31.5638 7.15814 29.7122 8.09271 28.646 9.31256C27.7027 10.3875 26.86 12.1494 27.0777 13.8063C28.7408 13.9272 30.4484 12.9881 31.5158 11.7602Z" fill="white"/>
<path d="M62.7845 35.9491H60.1266L58.6707 31.4885H53.61L52.2231 35.9491H49.6354L54.6493 20.7632H57.7461L62.7845 35.9491ZM58.2318 29.6171L56.9151 25.6517C56.7758 25.2466 56.5148 24.2926 56.1298 22.7909H56.083C55.9297 23.4368 55.6827 24.3908 55.3433 25.6517L54.05 29.6171H58.2318Z" fill="white"/>
<path d="M75.6785 30.3396C75.6785 32.2019 75.1624 33.6739 74.1301 34.7546C73.2055 35.7165 72.0574 36.1969 70.6869 36.1969C69.2075 36.1969 68.1448 35.6789 67.4976 34.6427H67.4508V40.4111H64.9556V28.604C64.9556 27.4332 64.924 26.2316 64.8631 24.9992H67.0575L67.1968 26.7348H67.2436C68.0758 25.4271 69.3386 24.7744 71.0333 24.7744C72.3581 24.7744 73.4641 25.2845 74.3489 26.3058C75.2361 27.3282 75.6785 28.6724 75.6785 30.3396ZM73.1364 30.4286C73.1364 29.3628 72.8907 28.4842 72.3968 27.7927C71.8572 27.0715 71.1328 26.7109 70.2246 26.7109C69.6089 26.7109 69.0495 26.9117 68.5498 27.3077C68.0488 27.7071 67.7211 28.2286 67.5678 28.8744C67.4906 29.1757 67.452 29.4222 67.452 29.6161V31.4419C67.452 32.2384 67.7024 32.9105 68.2033 33.4594C68.7043 34.0083 69.355 34.2822 70.1555 34.2822C71.0953 34.2822 71.8268 33.9284 72.35 33.2232C72.8743 32.5169 73.1364 31.5857 73.1364 30.4286Z" fill="white"/>
<path d="M88.5959 30.3396C88.5959 32.2019 88.0797 33.6739 87.0463 34.7546C86.1229 35.7165 84.9747 36.1969 83.6042 36.1969C82.1249 36.1969 81.0622 35.6789 80.4162 34.6427H80.3693V40.4111H77.8741V28.604C77.8741 27.4332 77.8425 26.2316 77.7816 24.9992H79.9761L80.1154 26.7348H80.1622C80.9931 25.4271 82.256 24.7744 83.9518 24.7744C85.2755 24.7744 86.3815 25.2845 87.2687 26.3058C88.1523 27.3282 88.5959 28.6724 88.5959 30.3396ZM86.0538 30.4286C86.0538 29.3628 85.8069 28.4842 85.313 27.7927C84.7734 27.0715 84.0513 26.7109 83.1419 26.7109C82.5252 26.7109 81.9669 26.9117 81.466 27.3077C80.9651 27.7071 80.6385 28.2286 80.4852 28.8744C80.4091 29.1757 80.3693 29.4222 80.3693 29.6161V31.4419C80.3693 32.2384 80.6198 32.9105 81.1184 33.4594C81.6193 34.0071 82.27 34.2822 83.0729 34.2822C84.0127 34.2822 84.7442 33.9284 85.2673 33.2232C85.7917 32.5169 86.0538 31.5857 86.0538 30.4286Z" fill="white"/>
<path d="M103.038 31.6908C103.038 32.9826 102.578 34.0335 101.655 34.8448C100.64 35.7315 99.2275 36.1742 97.4123 36.1742C95.7363 36.1742 94.3927 35.8593 93.3756 35.2283L93.9538 33.2005C95.0493 33.8464 96.2512 34.1704 97.5609 34.1704C98.5007 34.1704 99.2322 33.9628 99.7577 33.5497C100.281 33.1366 100.542 32.582 100.542 31.8905C100.542 31.2743 100.326 30.7551 99.8946 30.334C99.4651 29.913 98.7476 29.5216 97.7458 29.1598C95.0188 28.1682 93.6565 26.7156 93.6565 24.8053C93.6565 23.557 94.134 22.5334 95.0902 21.7369C96.0429 20.9393 97.3139 20.541 98.9033 20.541C100.321 20.541 101.498 20.7818 102.438 21.2622L101.814 23.2455C100.936 22.7799 99.9438 22.5471 98.8331 22.5471C97.9553 22.5471 97.2695 22.7582 96.7779 23.1781C96.3624 23.5536 96.1541 24.0111 96.1541 24.5532C96.1541 25.1534 96.3917 25.6498 96.8692 26.04C97.2847 26.4006 98.0396 26.7909 99.135 27.212C100.475 27.738 101.459 28.3531 102.093 29.0583C102.723 29.7612 103.038 30.641 103.038 31.6908Z" fill="white"/>
<path d="M111.288 26.8252H108.538V32.1416C108.538 33.4938 109.022 34.1694 109.994 34.1694C110.44 34.1694 110.809 34.1317 111.102 34.0564L111.171 35.9039C110.68 36.083 110.032 36.1732 109.231 36.1732C108.245 36.1732 107.475 35.8799 106.919 35.2945C106.366 34.708 106.087 33.7243 106.087 32.3424V26.8229H104.449V24.9971H106.087V22.9922L108.538 22.271V24.9971H111.288V26.8252Z" fill="white"/>
<path d="M123.698 30.384C123.698 32.0671 123.204 33.449 122.218 34.5296C121.185 35.6422 119.813 36.1968 118.103 36.1968C116.455 36.1968 115.143 35.6639 114.165 34.5981C113.187 33.5323 112.697 32.1869 112.697 30.5654C112.697 28.8686 113.201 27.4787 114.211 26.3981C115.218 25.3163 116.578 24.7754 118.288 24.7754C119.936 24.7754 121.262 25.3083 122.263 26.3752C123.22 27.4102 123.698 28.7465 123.698 30.384ZM121.109 30.4627C121.109 29.4528 120.888 28.5867 120.439 27.8644C119.916 26.9903 119.168 26.5544 118.199 26.5544C117.196 26.5544 116.434 26.9914 115.911 27.8644C115.463 28.5878 115.242 29.4676 115.242 30.5083C115.242 31.5182 115.463 32.3843 115.911 33.1055C116.451 33.9796 117.204 34.4155 118.177 34.4155C119.13 34.4155 119.878 33.9705 120.417 33.0827C120.877 32.3467 121.109 31.4714 121.109 30.4627Z" fill="white"/>
<path d="M131.808 27.1388C131.561 27.0943 131.298 27.0715 131.022 27.0715C130.144 27.0715 129.465 27.3944 128.988 28.0414C128.572 28.612 128.364 29.3332 128.364 30.2038V35.9493H125.87L125.893 28.4477C125.893 27.1856 125.862 26.0365 125.8 25.0004H127.973L128.064 27.0954H128.133C128.397 26.3754 128.812 25.7957 129.381 25.3609C129.937 24.9695 130.537 24.7744 131.184 24.7744C131.415 24.7744 131.623 24.7904 131.808 24.8189V27.1388Z" fill="white"/>
<path d="M142.968 29.9562C142.968 30.3921 142.938 30.7596 142.876 31.0597H135.391C135.42 32.1415 135.782 32.9688 136.477 33.5393C137.108 34.0494 137.923 34.305 138.925 34.305C140.034 34.305 141.045 34.1327 141.954 33.7869L142.345 35.4758C141.282 35.9277 140.028 36.1525 138.58 36.1525C136.839 36.1525 135.472 35.6527 134.477 34.6542C133.484 33.6557 132.987 32.3149 132.987 30.6329C132.987 28.9817 133.449 27.6067 134.375 26.5101C135.344 25.3393 136.654 24.7539 138.301 24.7539C139.92 24.7539 141.145 25.3393 141.978 26.5101C142.637 27.4401 142.968 28.5903 142.968 29.9562ZM140.588 29.3252C140.605 28.604 140.442 27.981 140.104 27.4549C139.672 26.7782 139.008 26.4405 138.115 26.4405C137.3 26.4405 136.636 26.7702 136.129 27.4321C135.714 27.9581 135.467 28.5892 135.391 29.3241H140.588V29.3252Z" fill="white"/>
<path d="M57.4067 11.4213C57.4067 12.7644 56.9935 13.7755 56.1684 14.4544C55.4042 15.0809 54.3181 15.3947 52.9113 15.3947C52.2137 15.3947 51.6168 15.365 51.1171 15.3057V7.9672C51.769 7.8645 52.4712 7.81201 53.2296 7.81201C54.5697 7.81201 55.5797 8.09615 56.2609 8.66442C57.024 9.30687 57.4067 10.2255 57.4067 11.4213ZM56.1134 11.4544C56.1134 10.5838 55.877 9.91622 55.4042 9.45065C54.9313 8.98621 54.2408 8.75343 53.3314 8.75343C52.9452 8.75343 52.6163 8.77853 52.3436 8.83102V14.4099C52.4946 14.4327 52.7708 14.443 53.1723 14.443C54.1109 14.443 54.8354 14.1885 55.3457 13.6796C55.8559 13.1707 56.1134 12.4289 56.1134 11.4544Z" fill="white"/>
<path d="M64.2639 12.5945C64.2639 13.4218 64.0216 14.0996 63.5371 14.6314C63.0292 15.178 62.3562 15.4507 61.5159 15.4507C60.706 15.4507 60.0611 15.1894 59.5801 14.6645C59.1002 14.1407 58.8603 13.48 58.8603 12.6835C58.8603 11.8505 59.1072 11.167 59.6035 10.6363C60.0997 10.1057 60.7668 9.83984 61.6072 9.83984C62.417 9.83984 63.0678 10.1012 63.5605 10.6249C64.0286 11.1339 64.2639 11.7911 64.2639 12.5945ZM62.9917 12.6333C62.9917 12.1369 62.8817 11.7113 62.6628 11.3564C62.4053 10.9273 62.039 10.7128 61.5627 10.7128C61.07 10.7128 60.6954 10.9273 60.438 11.3564C60.2179 11.7113 60.1091 12.1437 60.1091 12.655C60.1091 13.1513 60.2191 13.577 60.438 13.9319C60.7036 14.3609 61.0735 14.5755 61.551 14.5755C62.0191 14.5755 62.3866 14.3575 62.6511 13.9205C62.8782 13.5587 62.9917 13.1297 62.9917 12.6333Z" fill="white"/>
<path d="M73.4583 9.94922L71.732 15.3284H70.6084L69.8933 12.9926C69.7119 12.4095 69.5645 11.8298 69.4498 11.2547H69.4275C69.321 11.8457 69.1736 12.4243 68.984 12.9926L68.2244 15.3284H67.088L65.4647 9.94922H66.7251L67.349 12.5064C67.4999 13.1112 67.624 13.6875 67.7235 14.233H67.7457C67.837 13.7834 67.988 13.2105 68.201 12.5179L68.984 9.95036H69.9835L70.7337 12.4631C70.9151 13.0759 71.0625 13.6658 71.1761 14.2341H71.21C71.2931 13.6807 71.4183 13.0907 71.5845 12.4631L72.254 9.95036H73.4583V9.94922Z" fill="white"/>
<path d="M79.8169 15.3286H78.5904V12.2476C78.5904 11.2982 78.2205 10.8235 77.4785 10.8235C77.1145 10.8235 76.8208 10.9536 76.5926 11.2149C76.3667 11.4762 76.252 11.7843 76.252 12.1369V15.3275H75.0254V11.4865C75.0254 11.0141 75.0102 10.5017 74.981 9.94711H76.0589L76.1162 10.7881H76.1502C76.2929 10.5268 76.5059 10.3111 76.7857 10.1388C77.118 9.93799 77.4902 9.83643 77.8975 9.83643C78.4125 9.83643 78.8408 9.99846 79.1814 10.3237C79.6051 10.7219 79.8169 11.3164 79.8169 12.1061V15.3286Z" fill="white"/>
<path d="M83.1993 15.3284H81.9739V7.48096H83.1993V15.3284Z" fill="white"/>
<path d="M90.4205 12.5945C90.4205 13.4218 90.1782 14.0996 89.6937 14.6314C89.1857 15.178 88.5116 15.4507 87.6725 15.4507C86.8614 15.4507 86.2165 15.1894 85.7367 14.6645C85.2568 14.1407 85.0169 13.48 85.0169 12.6835C85.0169 11.8505 85.2638 11.167 85.7601 10.6363C86.2563 10.1057 86.9234 9.83984 87.7626 9.83984C88.5736 9.83984 89.2232 10.1012 89.7171 10.6249C90.1852 11.1339 90.4205 11.7911 90.4205 12.5945ZM89.1471 12.6333C89.1471 12.1369 89.0371 11.7113 88.8182 11.3564C88.5619 10.9273 88.1944 10.7128 87.7193 10.7128C87.2254 10.7128 86.8508 10.9273 86.5945 11.3564C86.3745 11.7113 86.2657 12.1437 86.2657 12.655C86.2657 13.1513 86.3757 13.577 86.5945 13.9319C86.8602 14.3609 87.2301 14.5755 87.7076 14.5755C88.1757 14.5755 88.542 14.3575 88.8065 13.9205C89.0348 13.5587 89.1471 13.1297 89.1471 12.6333Z" fill="white"/>
<path d="M96.3566 15.3286H95.2553L95.164 14.709H95.13C94.7532 15.2031 94.216 15.4507 93.5185 15.4507C92.9976 15.4507 92.5763 15.2875 92.2591 14.9634C91.9712 14.669 91.8273 14.3027 91.8273 13.868C91.8273 13.2107 92.1082 12.7097 92.6734 12.3628C93.2376 12.0159 94.0311 11.8459 95.0528 11.8539V11.7535C95.0528 11.0449 94.6713 10.6911 93.907 10.6911C93.3628 10.6911 92.8829 10.8246 92.4686 11.0894L92.2193 10.3043C92.732 9.99503 93.3651 9.83984 94.1118 9.83984C95.5537 9.83984 96.277 10.5816 96.277 12.065V14.046C96.277 14.5834 96.3039 15.0114 96.3566 15.3286ZM95.0832 13.48V12.6504C93.7303 12.6276 93.0538 12.9893 93.0538 13.7345C93.0538 14.0152 93.1311 14.2251 93.2891 14.3655C93.4471 14.5058 93.6484 14.5755 93.8883 14.5755C94.1575 14.5755 94.4091 14.4922 94.6385 14.3267C94.8691 14.1601 95.0107 13.949 95.0633 13.69C95.0762 13.6318 95.0832 13.561 95.0832 13.48Z" fill="white"/>
<path d="M103.326 15.3284H102.238L102.18 14.4646H102.146C101.799 15.1218 101.207 15.4505 100.374 15.4505C99.7097 15.4505 99.1561 15.196 98.7173 14.6871C98.2784 14.1781 98.0595 13.5174 98.0595 12.7061C98.0595 11.8354 98.2971 11.1302 98.7746 10.5916C99.2369 10.0895 99.8034 9.83849 100.477 9.83849C101.218 9.83849 101.737 10.0815 102.032 10.5688H102.055V7.48096H103.283V13.8792C103.283 14.4029 103.297 14.8856 103.326 15.3284ZM102.055 13.0598V12.1629C102.055 12.0077 102.043 11.8822 102.021 11.7864C101.952 11.4988 101.804 11.2569 101.578 11.0618C101.349 10.8666 101.074 10.7685 100.757 10.7685C100.3 10.7685 99.9415 10.9454 99.6781 11.3003C99.4171 11.6551 99.2849 12.1082 99.2849 12.6616C99.2849 13.1934 99.4101 13.6247 99.6617 13.9568C99.9274 14.3105 100.286 14.4874 100.734 14.4874C101.136 14.4874 101.458 14.3402 101.703 14.0446C101.939 13.7719 102.055 13.4433 102.055 13.0598Z" fill="white"/>
<path d="M113.816 12.5945C113.816 13.4218 113.574 14.0996 113.089 14.6314C112.581 15.178 111.91 15.4507 111.068 15.4507C110.259 15.4507 109.615 15.1894 109.132 14.6645C108.653 14.1407 108.413 13.48 108.413 12.6835C108.413 11.8505 108.66 11.167 109.156 10.6363C109.652 10.1057 110.319 9.83984 111.161 9.83984C111.969 9.83984 112.621 10.1012 113.113 10.6249C113.581 11.1339 113.816 11.7911 113.816 12.5945ZM112.545 12.6333C112.545 12.1369 112.435 11.7113 112.216 11.3564C111.958 10.9273 111.592 10.7128 111.115 10.7128C110.623 10.7128 110.249 10.9273 109.99 11.3564C109.77 11.7113 109.661 12.1437 109.661 12.655C109.661 13.1513 109.771 13.577 109.99 13.9319C110.256 14.3609 110.626 14.5755 111.103 14.5755C111.571 14.5755 111.94 14.3575 112.205 13.9205C112.43 13.5587 112.545 13.1297 112.545 12.6333Z" fill="white"/>
<path d="M120.411 15.3286H119.186V12.2476C119.186 11.2982 118.816 10.8235 118.073 10.8235C117.709 10.8235 117.415 10.9536 117.188 11.2149C116.961 11.4762 116.847 11.7843 116.847 12.1369V15.3275H115.62V11.4865C115.62 11.0141 115.606 10.5017 115.576 9.94711H116.653L116.711 10.7881H116.744C116.888 10.5268 117.101 10.3111 117.38 10.1388C117.714 9.93799 118.085 9.83643 118.493 9.83643C119.007 9.83643 119.435 9.99846 119.776 10.3237C120.201 10.7219 120.411 11.3164 120.411 12.1061V15.3286Z" fill="white"/>
<path d="M128.666 10.8453H127.315V13.4584C127.315 14.1226 127.555 14.4546 128.03 14.4546C128.25 14.4546 128.433 14.4364 128.577 14.3987L128.609 15.3059C128.366 15.3949 128.048 15.4394 127.656 15.4394C127.171 15.4394 126.794 15.2956 126.522 15.0081C126.248 14.7205 126.112 14.2367 126.112 13.5577V10.8453H125.306V9.94953H126.112V8.96361L127.314 8.60986V9.94839H128.665V10.8453H128.666Z" fill="white"/>
<path d="M135.159 15.3284H133.931V12.2702C133.931 11.306 133.562 10.8233 132.821 10.8233C132.252 10.8233 131.863 11.1028 131.65 11.662C131.614 11.7795 131.593 11.9233 131.593 12.0922V15.3272H130.368V7.48096H131.593V10.7229H131.616C132.003 10.1329 132.556 9.83849 133.274 9.83849C133.782 9.83849 134.202 10.0005 134.535 10.3257C134.951 10.7308 135.159 11.3333 135.159 12.1298V15.3284Z" fill="white"/>
<path d="M141.857 12.3845C141.857 12.5991 141.841 12.7794 141.811 12.9266H138.133C138.149 13.4583 138.325 13.8634 138.665 14.1441C138.977 14.3952 139.378 14.5207 139.87 14.5207C140.414 14.5207 140.91 14.4363 141.357 14.2662L141.549 15.097C141.026 15.3183 140.41 15.429 139.698 15.429C138.843 15.429 138.17 15.1837 137.684 14.693C137.194 14.2023 136.952 13.5439 136.952 12.7177C136.952 11.9064 137.178 11.2309 137.633 10.6923C138.108 10.1171 138.751 9.82959 139.562 9.82959C140.355 9.82959 140.958 10.1171 141.366 10.6923C141.694 11.1487 141.857 11.7136 141.857 12.3845ZM140.687 12.0753C140.696 11.7204 140.615 11.4146 140.449 11.1567C140.236 10.8246 139.912 10.658 139.473 10.658C139.073 10.658 138.746 10.8201 138.497 11.1453C138.293 11.4043 138.173 11.7136 138.133 12.0753H140.687Z" fill="white"/>
</svg>
