<svg width="87" height="25" viewBox="0 0 87 25" fill="none" xmlns="http://www.w3.org/2000/svg">
<path d="M86.0577 22.1168C86.0577 23.4491 84.956 24.5283 83.5934 24.5283H2.94829C1.5863 24.5283 0.480774 23.4491 0.480774 22.1168V2.88628C0.480774 1.55463 1.5863 0.47168 2.94829 0.47168H83.5928C84.956 0.47168 86.0571 1.55463 86.0571 2.88628L86.0577 22.1168Z" fill="white"/>
<path d="M83.3333 0.500782C84.8173 0.500782 86.0248 1.67813 86.0248 3.125V21.875C86.0248 23.3219 84.8173 24.4992 83.3333 24.4992H3.20513C1.72115 24.4992 0.513622 23.3219 0.513622 21.875V3.125C0.513622 1.67813 1.72115 0.500782 3.20513 0.500782H83.3333ZM83.3333 1.32123e-06H3.20513C1.44311 1.32123e-06 0 1.40703 0 3.125V21.875C0 23.593 1.44311 25 3.20513 25H83.3333C85.0954 25 86.5385 23.593 86.5385 21.875V3.125C86.5385 1.40703 85.0954 1.32123e-06 83.3333 1.32123e-06Z" fill="white"/>
<path d="M19.3128 12.3651C19.2942 10.3507 21.0045 9.37074 21.0827 9.32512C20.1141 7.94824 18.6128 7.76012 18.0853 7.74512C16.8244 7.61574 15.6013 8.48074 14.959 8.48074C14.3039 8.48074 13.3148 7.75762 12.2487 7.77887C10.8769 7.79949 9.5936 8.57387 8.88976 9.77637C7.43719 12.2282 8.52053 15.8314 9.91219 17.8132C10.6083 18.7839 11.4218 19.8676 12.4866 19.8295C13.5282 19.7876 13.9173 19.182 15.1744 19.182C16.4199 19.182 16.7853 19.8295 17.8712 19.8051C18.9891 19.7876 19.693 18.8301 20.3648 17.8507C21.1692 16.7382 21.4923 15.6426 21.5051 15.5864C21.4789 15.5776 19.334 14.7795 19.3128 12.3651Z" fill="#ED1C24"/>
<path d="M17.2615 6.44137C17.8218 5.75824 18.2051 4.82887 18.0987 3.88574C17.2878 3.92074 16.2737 4.43262 15.6898 5.10074C15.1731 5.68949 14.7116 6.65449 14.8308 7.56199C15.7417 7.62824 16.6769 7.11387 17.2615 6.44137Z" fill="#ED1C24"/>
<path d="M34.3878 19.6901H32.932L32.1346 17.2469H29.3628L28.6032 19.6901H27.1859L29.932 11.3726H31.6282L34.3878 19.6901ZM31.8942 16.2219L31.1731 14.0501C31.0968 13.8282 30.9538 13.3057 30.7429 12.4832H30.7173C30.6333 12.8369 30.4981 13.3594 30.3122 14.0501L29.6038 16.2219H31.8942Z" fill="#ED1C24"/>
<path d="M41.45 16.6179C41.45 17.6379 41.1673 18.4442 40.6019 19.0361C40.0955 19.5629 39.4667 19.8261 38.716 19.8261C37.9058 19.8261 37.3237 19.5423 36.9692 18.9748H36.9436V22.1342H35.5769V15.6673C35.5769 15.0261 35.5596 14.3679 35.5263 13.6929H36.7282L36.8045 14.6436H36.8301C37.2859 13.9273 37.9776 13.5698 38.9058 13.5698C39.6314 13.5698 40.2372 13.8492 40.7218 14.4086C41.2077 14.9686 41.45 15.7048 41.45 16.6179ZM40.0577 16.6667C40.0577 16.0829 39.9231 15.6017 39.6526 15.2229C39.357 14.8279 38.9602 14.6304 38.4628 14.6304C38.1256 14.6304 37.8192 14.7404 37.5455 14.9573C37.2711 15.1761 37.0917 15.4617 37.0077 15.8154C36.9654 15.9804 36.9442 16.1154 36.9442 16.2217V17.2217C36.9442 17.6579 37.0814 18.0261 37.3558 18.3267C37.6301 18.6273 37.9865 18.7773 38.425 18.7773C38.9397 18.7773 39.3404 18.5836 39.6269 18.1973C39.9141 17.8104 40.0577 17.3004 40.0577 16.6667Z" fill="#ED1C24"/>
<path d="M48.525 16.6179C48.525 17.6379 48.2423 18.4442 47.6763 19.0361C47.1705 19.5629 46.5416 19.8261 45.791 19.8261C44.9807 19.8261 44.3987 19.5423 44.0448 18.9748H44.0192V22.1342H42.6525V15.6673C42.6525 15.0261 42.6352 14.3679 42.6019 13.6929H43.8038L43.8801 14.6436H43.9057C44.3609 13.9273 45.0525 13.5698 45.9814 13.5698C46.7064 13.5698 47.3122 13.8492 47.7981 14.4086C48.282 14.9686 48.525 15.7048 48.525 16.6179ZM47.1327 16.6667C47.1327 16.0829 46.9974 15.6017 46.7269 15.2229C46.4314 14.8279 46.0359 14.6304 45.5378 14.6304C45.2 14.6304 44.8942 14.7404 44.6198 14.9573C44.3455 15.1761 44.1666 15.4617 44.0827 15.8154C44.041 15.9804 44.0192 16.1154 44.0192 16.2217V17.2217C44.0192 17.6579 44.1564 18.0261 44.4295 18.3267C44.7038 18.6267 45.0602 18.7773 45.5 18.7773C46.0147 18.7773 46.4154 18.5836 46.7019 18.1973C46.9891 17.8104 47.1327 17.3004 47.1327 16.6667Z" fill="#ED1C24"/>
<path d="M56.4353 17.3579C56.4353 18.0654 56.1833 18.641 55.6776 19.0854C55.1218 19.571 54.3481 19.8135 53.3538 19.8135C52.4359 19.8135 51.7 19.641 51.1429 19.2954L51.4596 18.1847C52.0596 18.5385 52.7179 18.716 53.4353 18.716C53.95 18.716 54.3506 18.6022 54.6385 18.376C54.925 18.1497 55.0679 17.846 55.0679 17.4672C55.0679 17.1297 54.95 16.8454 54.7135 16.6147C54.4782 16.3841 54.0853 16.1697 53.5365 15.9716C52.0429 15.4285 51.2968 14.6329 51.2968 13.5866C51.2968 12.9029 51.5583 12.3422 52.082 11.906C52.6038 11.4691 53.3 11.251 54.1705 11.251C54.9468 11.251 55.5917 11.3829 56.1064 11.646L55.7647 12.7322C55.284 12.4772 54.7404 12.3497 54.132 12.3497C53.6513 12.3497 53.2756 12.4654 53.0064 12.6954C52.7788 12.901 52.6647 13.1516 52.6647 13.4485C52.6647 13.7772 52.7949 14.0491 53.0564 14.2629C53.284 14.4604 53.6974 14.6741 54.2974 14.9047C55.0314 15.1929 55.5705 15.5297 55.9173 15.916C56.2628 16.301 56.4353 16.7829 56.4353 17.3579Z" fill="#ED1C24"/>
<path d="M60.9538 14.6931H59.4474V17.605C59.4474 18.3456 59.7128 18.7156 60.2449 18.7156C60.4891 18.7156 60.6916 18.695 60.8519 18.6537L60.8897 19.6656C60.6205 19.7637 60.266 19.8131 59.8269 19.8131C59.2872 19.8131 58.8654 19.6525 58.5609 19.3319C58.2577 19.0106 58.1051 18.4719 58.1051 17.715V14.6919H57.2077V13.6919H58.1051V12.5937L59.4474 12.1987V13.6919H60.9538V14.6931Z" fill="#ED1C24"/>
<path d="M67.7506 16.6422C67.7506 17.5641 67.4801 18.3209 66.9404 18.9128C66.3743 19.5222 65.6231 19.8259 64.6865 19.8259C63.784 19.8259 63.0654 19.5341 62.5295 18.9503C61.9936 18.3666 61.7256 17.6297 61.7256 16.7416C61.7256 15.8122 62.0013 15.0509 62.5545 14.4591C63.1064 13.8666 63.8513 13.5703 64.7878 13.5703C65.6904 13.5703 66.4166 13.8622 66.9647 14.4466C67.4891 15.0134 67.7506 15.7453 67.7506 16.6422ZM66.3327 16.6853C66.3327 16.1322 66.2115 15.6578 65.966 15.2622C65.6795 14.7834 65.2698 14.5447 64.7391 14.5447C64.1897 14.5447 63.7724 14.7841 63.4859 15.2622C63.2404 15.6584 63.1192 16.1403 63.1192 16.7103C63.1192 17.2634 63.2404 17.7378 63.4859 18.1328C63.7814 18.6116 64.1942 18.8503 64.7269 18.8503C65.2487 18.8503 65.6583 18.6066 65.9538 18.1203C66.2057 17.7172 66.3327 17.2378 66.3327 16.6853Z" fill="#ED1C24"/>
<path d="M72.1929 14.8648C72.0577 14.8404 71.9134 14.8279 71.7622 14.8279C71.2814 14.8279 70.9096 15.0048 70.648 15.3592C70.4205 15.6717 70.3064 16.0667 70.3064 16.5436V19.6904H68.9403L68.9532 15.5817C68.9532 14.8904 68.9359 14.2611 68.9019 13.6936H70.0923L70.1423 14.8411H70.1801C70.3243 14.4467 70.5519 14.1292 70.8634 13.8911C71.1679 13.6767 71.4968 13.5698 71.8513 13.5698C71.9775 13.5698 72.0916 13.5786 72.1929 13.5942V14.8648Z" fill="#ED1C24"/>
<path d="M78.3051 16.408C78.3051 16.6467 78.2891 16.848 78.2551 17.0123H74.1551C74.1711 17.6048 74.3692 18.058 74.75 18.3705C75.0955 18.6498 75.5423 18.7898 76.091 18.7898C76.6981 18.7898 77.2519 18.6955 77.75 18.5061L77.9641 19.4311C77.382 19.6786 76.6948 19.8017 75.9019 19.8017C74.9481 19.8017 74.1993 19.528 73.6545 18.9811C73.1109 18.4342 72.8384 17.6998 72.8384 16.7786C72.8384 15.8742 73.0916 15.1211 73.5987 14.5205C74.1295 13.8792 74.8468 13.5586 75.7493 13.5586C76.6359 13.5586 77.307 13.8792 77.7628 14.5205C78.1237 15.0298 78.3051 15.6598 78.3051 16.408ZM77.0019 16.0623C77.0109 15.6673 76.9218 15.3261 76.7365 15.038C76.5 14.6673 76.1365 14.4823 75.6474 14.4823C75.2006 14.4823 74.8372 14.663 74.5596 15.0255C74.332 15.3136 74.1968 15.6592 74.1551 16.0617H77.0019V16.0623Z" fill="#ED1C24"/>
<path d="M31.4423 6.25568C31.4423 6.99131 31.216 7.54506 30.7641 7.91693C30.3455 8.26006 29.7506 8.43193 28.9801 8.43193C28.5981 8.43193 28.2712 8.41568 27.9974 8.38318V4.36381C28.3545 4.30756 28.7391 4.27881 29.1545 4.27881C29.8885 4.27881 30.4417 4.43443 30.8147 4.74568C31.2327 5.09756 31.4423 5.60068 31.4423 6.25568ZM30.734 6.27381C30.734 5.79693 30.6045 5.43131 30.3455 5.17631C30.0865 4.92193 29.7083 4.79443 29.2103 4.79443C28.9987 4.79443 28.8186 4.80818 28.6692 4.83693V7.89256C28.7519 7.90506 28.9032 7.91068 29.1231 7.91068C29.6372 7.91068 30.034 7.77131 30.3135 7.49256C30.593 7.21381 30.734 6.80756 30.734 6.27381Z" fill="#ED1C24"/>
<path d="M35.1981 6.89791C35.1981 7.35103 35.0654 7.72228 34.8 8.01353C34.5218 8.31291 34.1532 8.46228 33.693 8.46228C33.2494 8.46228 32.8962 8.31916 32.6327 8.03166C32.3699 7.74478 32.2385 7.38291 32.2385 6.94666C32.2385 6.49041 32.3737 6.11603 32.6455 5.82541C32.9173 5.53479 33.2827 5.38916 33.743 5.38916C34.1866 5.38916 34.543 5.53228 34.8128 5.81916C35.0693 6.09791 35.1981 6.45791 35.1981 6.89791ZM34.5013 6.91916C34.5013 6.64728 34.441 6.41416 34.3212 6.21978C34.1801 5.98478 33.9795 5.86728 33.7186 5.86728C33.4487 5.86728 33.2436 5.98478 33.1026 6.21978C32.9821 6.41416 32.9225 6.65103 32.9225 6.93103C32.9225 7.20291 32.9827 7.43603 33.1026 7.63041C33.2481 7.86541 33.4507 7.98291 33.7122 7.98291C33.9686 7.98291 34.1699 7.86353 34.3148 7.62416C34.4391 7.42603 34.5013 7.19103 34.5013 6.91916Z" fill="#ED1C24"/>
<path d="M40.234 5.44971L39.2885 8.39596H38.6731L38.2814 7.11658C38.1821 6.79721 38.1013 6.47971 38.0385 6.16471H38.0263C37.968 6.48846 37.8872 6.80533 37.7833 7.11658L37.3673 8.39596H36.7449L35.8558 5.44971H36.5462L36.8878 6.85033C36.9705 7.18158 37.0385 7.49721 37.093 7.79596H37.1051C37.1551 7.54971 37.2378 7.23596 37.3545 6.85658L37.7833 5.45033H38.3308L38.7417 6.82658C38.841 7.16221 38.9218 7.48533 38.984 7.79658H39.0026C39.0481 7.49346 39.1167 7.17033 39.2077 6.82658L39.5744 5.45033H40.234V5.44971Z" fill="#ED1C24"/>
<path d="M43.7167 8.39533H43.0449V6.70783C43.0449 6.18783 42.8423 5.92783 42.4359 5.92783C42.2366 5.92783 42.0757 5.99908 41.9507 6.14221C41.8269 6.28533 41.7641 6.45408 41.7641 6.64721V8.39471H41.0923V6.29096C41.0923 6.03221 41.084 5.75158 41.068 5.44783H41.6584L41.6898 5.90846H41.7084C41.7866 5.76533 41.9032 5.64721 42.0564 5.55283C42.2385 5.44283 42.4423 5.38721 42.6654 5.38721C42.9475 5.38721 43.1821 5.47596 43.3686 5.65408C43.6007 5.87221 43.7167 6.19783 43.7167 6.63033V8.39533Z" fill="#ED1C24"/>
<path d="M45.5692 8.39578H44.8981V4.09766H45.5692V8.39578Z" fill="#ED1C24"/>
<path d="M49.5244 6.89791C49.5244 7.35103 49.3917 7.72228 49.1263 8.01353C48.8481 8.31291 48.4789 8.46228 48.0192 8.46228C47.575 8.46228 47.2218 8.31916 46.959 8.03166C46.6962 7.74478 46.5648 7.38291 46.5648 6.94666C46.5648 6.49041 46.7 6.11603 46.9718 5.82541C47.2436 5.53479 47.609 5.38916 48.0686 5.38916C48.5128 5.38916 48.8686 5.53228 49.1391 5.81916C49.3955 6.09791 49.5244 6.45791 49.5244 6.89791ZM48.8269 6.91916C48.8269 6.64728 48.7667 6.41416 48.6468 6.21978C48.5064 5.98478 48.3051 5.86728 48.0449 5.86728C47.7744 5.86728 47.5692 5.98478 47.4289 6.21978C47.3083 6.41416 47.2487 6.65103 47.2487 6.93103C47.2487 7.20291 47.309 7.43603 47.4289 7.63041C47.5744 7.86541 47.7769 7.98291 48.0385 7.98291C48.2949 7.98291 48.4955 7.86353 48.6404 7.62416C48.7654 7.42603 48.8269 7.19103 48.8269 6.91916Z" fill="#ED1C24"/>
<path d="M52.7756 8.39541H52.1724L52.1224 8.05603H52.1038C51.8974 8.32666 51.6032 8.46228 51.2212 8.46228C50.9359 8.46228 50.7051 8.37291 50.5314 8.19541C50.3737 8.03416 50.2949 7.83353 50.2949 7.59541C50.2949 7.23541 50.4487 6.96103 50.7583 6.77103C51.0673 6.58103 51.5019 6.48791 52.0615 6.49228V6.43728C52.0615 6.04916 51.8526 5.85541 51.434 5.85541C51.1359 5.85541 50.8731 5.92854 50.6462 6.07354L50.5096 5.64353C50.7904 5.47416 51.1372 5.38916 51.5462 5.38916C52.3359 5.38916 52.7321 5.79541 52.7321 6.60791V7.69291C52.7321 7.98728 52.7468 8.22166 52.7756 8.39541ZM52.0782 7.38291V6.92854C51.3372 6.91604 50.9667 7.11416 50.9667 7.52228C50.9667 7.67603 51.009 7.79103 51.0955 7.86791C51.1821 7.94478 51.2923 7.98291 51.4237 7.98291C51.5712 7.98291 51.709 7.93728 51.8346 7.84666C51.9609 7.75541 52.0385 7.63978 52.0673 7.49791C52.0744 7.46603 52.0782 7.42728 52.0782 7.38291Z" fill="#ED1C24"/>
<path d="M56.593 8.39578H55.9968L55.9654 7.92266H55.9468C55.7564 8.28266 55.4321 8.46266 54.9763 8.46266C54.6122 8.46266 54.309 8.32328 54.0686 8.04453C53.8282 7.76578 53.7084 7.40391 53.7084 6.95953C53.7084 6.48266 53.8385 6.09641 54.1 5.80141C54.3532 5.52641 54.6635 5.38891 55.0327 5.38891C55.4385 5.38891 55.7225 5.52203 55.884 5.78891H55.8968V4.09766H56.5693V7.60203C56.5693 7.88891 56.5769 8.15328 56.593 8.39578ZM55.8968 7.15328V6.66203C55.8968 6.57703 55.8904 6.50828 55.8782 6.45578C55.8404 6.29828 55.759 6.16578 55.6353 6.05891C55.5103 5.95203 55.3596 5.89828 55.1859 5.89828C54.9353 5.89828 54.7391 5.99516 54.5949 6.18953C54.4519 6.38391 54.3795 6.63203 54.3795 6.93516C54.3795 7.22641 54.4481 7.46266 54.5859 7.64453C54.7314 7.83828 54.9276 7.93516 55.1731 7.93516C55.3936 7.93516 55.5699 7.85453 55.7039 7.69266C55.8334 7.54328 55.8968 7.36328 55.8968 7.15328Z" fill="#ED1C24"/>
<path d="M62.3385 6.89791C62.3385 7.35103 62.2058 7.72228 61.9404 8.01353C61.6622 8.31291 61.2943 8.46228 60.8334 8.46228C60.3904 8.46228 60.0372 8.31916 59.7731 8.03166C59.5103 7.74478 59.3789 7.38291 59.3789 6.94666C59.3789 6.49041 59.5141 6.11603 59.7859 5.82541C60.0577 5.53479 60.4231 5.38916 60.884 5.38916C61.327 5.38916 61.684 5.53228 61.9532 5.81916C62.2096 6.09791 62.3385 6.45791 62.3385 6.89791ZM61.6423 6.91916C61.6423 6.64728 61.5821 6.41416 61.4622 6.21978C61.3205 5.98478 61.1205 5.86728 60.859 5.86728C60.5898 5.86728 60.3846 5.98478 60.243 6.21978C60.1225 6.41416 60.0629 6.65103 60.0629 6.93103C60.0629 7.20291 60.1231 7.43603 60.243 7.63041C60.3885 7.86541 60.5911 7.98291 60.8526 7.98291C61.109 7.98291 61.3109 7.86353 61.4558 7.62416C61.5795 7.42603 61.6423 7.19103 61.6423 6.91916Z" fill="#ED1C24"/>
<path d="M65.9507 8.39533H65.2795V6.70783C65.2795 6.18783 65.077 5.92783 64.6699 5.92783C64.4705 5.92783 64.3096 5.99908 64.1853 6.14221C64.0609 6.28533 63.9987 6.45408 63.9987 6.64721V8.39471H63.3263V6.29096C63.3263 6.03221 63.3186 5.75158 63.3026 5.44783H63.8923L63.9238 5.90846H63.9423C64.0212 5.76533 64.1379 5.64721 64.2904 5.55283C64.4731 5.44283 64.6763 5.38721 64.9 5.38721C65.1814 5.38721 65.4161 5.47596 65.6026 5.65408C65.8353 5.87221 65.9507 6.19783 65.9507 6.63033V8.39533Z" fill="#ED1C24"/>
<path d="M70.4718 5.94019H69.7321V7.37144C69.7321 7.73519 69.8635 7.91707 70.1237 7.91707C70.2442 7.91707 70.3442 7.90707 70.4231 7.88645L70.4404 8.38332C70.3077 8.43207 70.1333 8.45644 69.9186 8.45644C69.6532 8.45644 69.4468 8.3777 69.2974 8.2202C69.1474 8.0627 69.0731 7.79769 69.0731 7.42582V5.94019H68.6314V5.44957H69.0731V4.90957L69.7314 4.71582V5.44895H70.4712V5.94019H70.4718Z" fill="#ED1C24"/>
<path d="M74.0282 8.39578H73.3558V6.72078C73.3558 6.19266 73.1532 5.92828 72.7475 5.92828C72.4359 5.92828 72.2231 6.08141 72.1064 6.38766C72.0866 6.45203 72.075 6.53078 72.075 6.62328V8.39516H71.4039V4.09766H72.075V5.87328H72.0878C72.2994 5.55016 72.6026 5.38891 72.9955 5.38891C73.2738 5.38891 73.5039 5.47766 73.6866 5.65578C73.9141 5.87766 74.0282 6.20766 74.0282 6.64391V8.39578Z" fill="#ED1C24"/>
<path d="M77.6968 6.78316C77.6968 6.90066 77.6878 6.99941 77.6718 7.08004H75.6571C75.6661 7.37129 75.7622 7.59316 75.9487 7.74691C76.1193 7.88441 76.3391 7.95316 76.6084 7.95316C76.9064 7.95316 77.1782 7.90691 77.4231 7.81379L77.5282 8.26879C77.2417 8.39004 76.9045 8.45066 76.5141 8.45066C76.0462 8.45066 75.6776 8.31629 75.4109 8.04754C75.143 7.77879 75.0103 7.41816 75.0103 6.96566C75.0103 6.52129 75.134 6.15129 75.3834 5.85629C75.6436 5.54129 75.9955 5.38379 76.4398 5.38379C76.8744 5.38379 77.2045 5.54129 77.4276 5.85629C77.6077 6.10629 77.6968 6.41566 77.6968 6.78316ZM77.0558 6.61379C77.0609 6.41941 77.0167 6.25191 76.9257 6.11066C76.809 5.92879 76.6314 5.83754 76.3911 5.83754C76.1718 5.83754 75.993 5.92629 75.8564 6.10441C75.7449 6.24629 75.6789 6.41566 75.6571 6.61379H77.0558Z" fill="#ED1C24"/>
</svg>
