<svg width="87" height="25" viewBox="0 0 87 25" fill="none" xmlns="http://www.w3.org/2000/svg">
<path d="M83.2188 25H3.20072C1.44113 25 0 23.593 0 21.875V3.125C0 1.40703 1.44113 1.32123e-06 3.20072 1.32123e-06H83.2188C84.9784 1.32123e-06 86.4195 1.40703 86.4195 3.125V21.875C86.4195 23.593 84.9784 25 83.2188 25Z" fill="white"/>
<path d="M83.2188 0.500782C84.7007 0.500782 85.9066 1.67813 85.9066 3.125V21.875C85.9066 23.3219 84.7007 24.4992 83.2188 24.4992H3.20072C1.71879 24.4992 0.512916 23.3219 0.512916 21.875V3.125C0.512916 1.67813 1.71879 0.500782 3.20072 0.500782H83.2188ZM83.2188 1.32123e-06H3.20072C1.44113 1.32123e-06 0 1.40703 0 3.125V21.875C0 23.593 1.44113 25 3.20072 25H83.2188C84.9784 25 86.4195 23.593 86.4195 21.875V3.125C86.4195 1.40703 84.9784 1.32123e-06 83.2188 1.32123e-06Z" fill="white"/>
<path d="M30.3541 6.40225C30.3541 6.92412 30.194 7.34209 29.8788 7.65381C29.5163 8.02334 29.0442 8.20928 28.4656 8.20928C27.9127 8.20928 27.4406 8.02021 27.0533 7.64756C26.6652 7.26943 26.4716 6.80537 26.4716 6.2499C26.4716 5.69443 26.6652 5.23037 27.0533 4.85537C27.4406 4.47959 27.9127 4.29053 28.4656 4.29053C28.7409 4.29053 29.0034 4.346 29.2538 4.44912C29.5035 4.55303 29.7067 4.69365 29.8539 4.86709L29.5195 5.19678C29.2626 4.90068 28.9129 4.75459 28.4656 4.75459C28.0623 4.75459 27.7127 4.89209 27.4158 5.16943C27.1221 5.44756 26.9749 5.80771 26.9749 6.2499C26.9749 6.69209 27.1221 7.05537 27.4158 7.3335C27.7127 7.60771 28.0623 7.74834 28.4656 7.74834C28.8937 7.74834 29.2538 7.60771 29.5379 7.33037C29.7251 7.14678 29.8315 6.89365 29.8595 6.57021H28.4656V6.11865H30.3253C30.3477 6.21631 30.3541 6.31084 30.3541 6.40225Z" fill="#ED1C24" stroke="#ED1C24" stroke-width="0.16" stroke-miterlimit="10"/>
<path d="M33.3043 4.83662H31.5575V6.02412H33.1323V6.47568H31.5575V7.66318H33.3043V8.12334H31.063V4.37646H33.3043V4.83662Z" fill="#ED1C24" stroke="#ED1C24" stroke-width="0.16" stroke-miterlimit="10"/>
<path d="M35.3864 8.12334H34.8919V4.83662H33.8204V4.37646H36.4586V4.83662H35.3864V8.12334Z" fill="#ED1C24" stroke="#ED1C24" stroke-width="0.16" stroke-miterlimit="10"/>
<path d="M38.3679 8.12334V4.37646H38.8616V8.12334H38.3679Z" fill="#ED1C24" stroke="#ED1C24" stroke-width="0.16" stroke-miterlimit="10"/>
<path d="M41.05 8.12334H40.5595V4.83662H39.4841V4.37646H42.1255V4.83662H41.05V8.12334Z" fill="#ED1C24" stroke="#ED1C24" stroke-width="0.16" stroke-miterlimit="10"/>
<path d="M47.1202 7.64131C46.7417 8.02021 46.2728 8.20928 45.7135 8.20928C45.151 8.20928 44.6821 8.02021 44.3036 7.64131C43.9259 7.26318 43.7379 6.79912 43.7379 6.2499C43.7379 5.70068 43.9259 5.23662 44.3036 4.8585C44.6821 4.47959 45.151 4.29053 45.7135 4.29053C46.2696 4.29053 46.7386 4.47959 47.117 4.86162C47.4979 5.24287 47.686 5.70381 47.686 6.2499C47.686 6.79912 47.4979 7.26318 47.1202 7.64131ZM44.6693 7.32725C44.9541 7.60771 45.3006 7.74834 45.7135 7.74834C46.1232 7.74834 46.4729 7.60771 46.7546 7.32725C47.0386 7.04678 47.1826 6.68662 47.1826 6.2499C47.1826 5.81318 47.0386 5.45303 46.7546 5.17256C46.4729 4.89209 46.1232 4.75146 45.7135 4.75146C45.3006 4.75146 44.9541 4.89209 44.6693 5.17256C44.3852 5.45303 44.2412 5.81318 44.2412 6.2499C44.2412 6.68662 44.3852 7.04678 44.6693 7.32725Z" fill="#ED1C24" stroke="#ED1C24" stroke-width="0.16" stroke-miterlimit="10"/>
<path d="M48.3797 8.12334V4.37646H48.9798L50.8459 7.29053H50.8675L50.8459 6.57021V4.37646H51.3396V8.12334H50.8243L48.8702 5.06553H48.8486L48.8702 5.78896V8.12334H48.3797Z" fill="#ED1C24" stroke="#ED1C24" stroke-width="0.16" stroke-miterlimit="10"/>
<path d="M43.6162 13.5952C42.1127 13.5952 40.8844 14.7124 40.8844 16.2538C40.8844 17.7827 42.1127 18.9116 43.6162 18.9116C45.123 18.9116 46.3513 17.7827 46.3513 16.2538C46.3513 14.7124 45.123 13.5952 43.6162 13.5952ZM43.6162 17.8647C42.7913 17.8647 42.0815 17.1999 42.0815 16.2538C42.0815 15.2952 42.7913 14.6421 43.6162 14.6421C44.4412 14.6421 45.1542 15.2952 45.1542 16.2538C45.1542 17.1999 44.4412 17.8647 43.6162 17.8647ZM37.6557 13.5952C36.149 13.5952 34.9239 14.7124 34.9239 16.2538C34.9239 17.7827 36.149 18.9116 37.6557 18.9116C39.1616 18.9116 40.3875 17.7827 40.3875 16.2538C40.3875 14.7124 39.1616 13.5952 37.6557 13.5952ZM37.6557 17.8647C36.8299 17.8647 36.1178 17.1999 36.1178 16.2538C36.1178 15.2952 36.8299 14.6421 37.6557 14.6421C38.4807 14.6421 39.1904 15.2952 39.1904 16.2538C39.1904 17.1999 38.4807 17.8647 37.6557 17.8647ZM30.5629 14.4101V15.5397H33.3259C33.2451 16.171 33.0291 16.6351 32.6978 16.9585C32.2945 17.3491 31.6663 17.7827 30.5629 17.7827C28.8625 17.7827 27.531 16.4429 27.531 14.7827C27.531 13.1226 28.8625 11.7827 30.5629 11.7827C31.4823 11.7827 32.1513 12.1335 32.645 12.5882L33.4604 11.7921C32.7698 11.1483 31.8512 10.6538 30.5629 10.6538C28.2312 10.6538 26.2715 12.5062 26.2715 14.7827C26.2715 17.0593 28.2312 18.9116 30.5629 18.9116C31.8232 18.9116 32.7698 18.5085 33.514 17.7522C34.2765 17.0077 34.5142 15.9608 34.5142 15.1155C34.5142 14.853 34.4918 14.6116 34.4518 14.4101H30.5629ZM59.5662 15.2858C59.3414 14.6913 58.6476 13.5952 57.2345 13.5952C55.8342 13.5952 54.6683 14.6726 54.6683 16.2538C54.6683 17.7429 55.8222 18.9116 57.3689 18.9116C58.6196 18.9116 59.3414 18.1671 59.6383 17.7335L58.71 17.1296C58.4004 17.5718 57.9787 17.8647 57.3689 17.8647C56.7632 17.8647 56.3287 17.5937 56.0502 17.0593L59.6919 15.5882L59.5662 15.2858ZM55.8534 16.171C55.8222 15.146 56.6688 14.621 57.2753 14.621C57.7506 14.621 58.1539 14.853 58.2883 15.1851L55.8534 16.171ZM52.8935 18.7499H54.0906V10.9374H52.8935V18.7499ZM50.9331 14.1874H50.8931C50.6242 13.8765 50.1113 13.5952 49.4616 13.5952C48.0981 13.5952 46.8514 14.764 46.8514 16.2624C46.8514 17.7522 48.0981 18.9116 49.4616 18.9116C50.1113 18.9116 50.6242 18.628 50.8931 18.3077H50.9331V18.689C50.9331 19.7054 50.377 20.2515 49.48 20.2515C48.7486 20.2515 48.2949 19.7358 48.1077 19.3022L47.0666 19.7265C47.3667 20.4312 48.1613 21.2983 49.48 21.2983C50.8835 21.2983 52.0677 20.4921 52.0677 18.5304V13.7569H50.9331V14.1874ZM49.564 17.8647C48.739 17.8647 48.0484 17.1905 48.0484 16.2624C48.0484 15.3257 48.739 14.6421 49.564 14.6421C50.377 14.6421 51.0179 15.3257 51.0179 16.2624C51.0179 17.1905 50.377 17.8647 49.564 17.8647ZM65.1707 10.9374H62.3077V18.7499H63.5015V15.7897H65.1707C66.4966 15.7897 67.7969 14.853 67.7969 13.3632C67.7969 11.8741 66.4934 10.9374 65.1707 10.9374ZM65.2019 14.703H63.5015V12.0241H65.2019C66.0933 12.0241 66.6022 12.7468 66.6022 13.3632C66.6022 13.9679 66.0933 14.703 65.2019 14.703ZM72.582 13.5804C71.7194 13.5804 70.8224 13.9522 70.4535 14.7765L71.5129 15.2101C71.741 14.7765 72.1603 14.6358 72.6036 14.6358C73.2229 14.6358 73.8511 14.9991 73.8607 15.6405V15.7226C73.6446 15.6007 73.1821 15.4202 72.6132 15.4202C71.4721 15.4202 70.3095 16.0335 70.3095 17.178C70.3095 18.2249 71.2441 18.8991 72.2947 18.8991C73.0981 18.8991 73.5414 18.5452 73.8198 18.1335H73.8607V18.7374H75.0137V15.7405C75.0137 14.3554 73.9543 13.5804 72.582 13.5804ZM72.4379 17.8616C72.0474 17.8616 71.5033 17.6726 71.5033 17.1999C71.5033 16.5952 72.1819 16.3632 72.7692 16.3632C73.2949 16.3632 73.5414 16.4765 73.8607 16.6257C73.767 17.3491 73.1293 17.8616 72.4379 17.8616ZM79.2147 13.7515L77.8424 17.1382H77.8015L76.3828 13.7515H75.0953L77.227 18.4843L76.0107 21.1179H77.2582L80.543 13.7515H79.2147ZM68.453 18.7499H69.6501V10.9374H68.453V18.7499Z" fill="#ED1C24"/>
<path d="M6.67991 4.71162C6.49187 4.90381 6.38304 5.20302 6.38304 5.59052V19.4124C6.38304 19.7999 6.49187 20.0991 6.67991 20.2913L6.72632 20.3335L14.6593 12.5913V12.4085L6.72632 4.66631L6.67991 4.71162Z" fill="url(#paint0_linear_135_584)"/>
<path d="M17.3007 15.1733L14.6593 12.5913V12.4085L17.3039 9.82647L17.3631 9.86006L20.495 11.5999C21.3888 12.0937 21.3888 12.9062 20.495 13.403L17.3631 15.1397L17.3007 15.1733Z" fill="url(#paint1_linear_135_584)"/>
<path d="M17.3631 15.1398L14.6593 12.5L6.6799 20.2914C6.97677 20.596 7.46088 20.6328 8.0114 20.3281L17.3631 15.1398Z" fill="url(#paint2_linear_135_584)"/>
<path d="M17.3631 9.86016L8.0114 4.67188C7.46088 4.37031 6.97677 4.40703 6.6799 4.71172L14.6593 12.5L17.3631 9.86016Z" fill="url(#paint3_linear_135_584)"/>
<defs>
<linearGradient id="paint0_linear_135_584" x1="13.955" y1="19.5563" x2="3.46896" y2="8.81626" gradientUnits="userSpaceOnUse">
<stop stop-color="#00A0FF"/>
<stop offset="0.0066" stop-color="#00A1FF"/>
<stop offset="0.2601" stop-color="#00BEFF"/>
<stop offset="0.5122" stop-color="#00D2FF"/>
<stop offset="0.7604" stop-color="#00DFFF"/>
<stop offset="1" stop-color="#00E3FF"/>
</linearGradient>
<linearGradient id="paint1_linear_135_584" x1="21.6589" y1="12.499" x2="6.16938" y2="12.499" gradientUnits="userSpaceOnUse">
<stop stop-color="#FFE000"/>
<stop offset="0.4087" stop-color="#FFBD00"/>
<stop offset="0.7754" stop-color="#FFA500"/>
<stop offset="1" stop-color="#FF9C00"/>
</linearGradient>
<linearGradient id="paint2_linear_135_584" x1="15.8929" y1="11.0649" x2="1.673" y2="-3.49953" gradientUnits="userSpaceOnUse">
<stop stop-color="#FF3A44"/>
<stop offset="1" stop-color="#C31162"/>
</linearGradient>
<linearGradient id="paint3_linear_135_584" x1="4.67132" y1="24.8899" x2="11.0211" y2="18.3863" gradientUnits="userSpaceOnUse">
<stop stop-color="#32A071"/>
<stop offset="0.0685" stop-color="#2DA771"/>
<stop offset="0.4762" stop-color="#15CF74"/>
<stop offset="0.8009" stop-color="#06E775"/>
<stop offset="1" stop-color="#00F076"/>
</linearGradient>
</defs>
</svg>
