<svg width="158" height="46" viewBox="0 0 158 46" fill="none" xmlns="http://www.w3.org/2000/svg">
<path d="M5.85185 44.4686H152.148C154.688 44.4686 156.747 42.4364 156.747 39.9936V5.71317C156.747 3.27043 154.688 1.23817 152.148 1.23817H5.85185C3.3123 1.23817 1.25299 3.27043 1.25299 5.71317V39.9936C1.25299 42.4364 3.3123 44.4686 5.85185 44.4686Z" stroke="white" stroke-width="2"/>
<path d="M55.496 11.7051C55.496 12.6592 55.2034 13.4234 54.627 13.9933C53.9643 14.6689 53.1012 15.0089 52.0434 15.0089C51.0325 15.0089 50.1694 14.6632 49.4613 13.9819C48.7518 13.2905 48.3977 12.4421 48.3977 11.4265C48.3977 10.411 48.7518 9.56255 49.4613 8.87694C50.1694 8.1899 51.0325 7.84424 52.0434 7.84424C52.5467 7.84424 53.0265 7.94565 53.4845 8.13419C53.9409 8.32416 54.3125 8.58127 54.5817 8.89836L53.9702 9.50113C53.5005 8.95978 52.8612 8.69268 52.0434 8.69268C51.3061 8.69268 50.6668 8.94407 50.124 9.45113C49.5871 9.95963 49.3179 10.6181 49.3179 11.4265C49.3179 12.235 49.5871 12.8992 50.124 13.4077C50.6668 13.909 51.3061 14.1661 52.0434 14.1661C52.8261 14.1661 53.4845 13.909 54.0038 13.402C54.3461 13.0663 54.5407 12.6035 54.5919 12.0122H52.0434V11.1866H55.4434C55.4843 11.3651 55.496 11.538 55.496 11.7051Z" fill="white" stroke="white" stroke-width="0.16" stroke-miterlimit="10"/>
<path d="M60.89 8.84276H57.6963V11.0139H60.5754V11.8394H57.6963V14.0105H60.89V14.8518H56.7922V8.00146H60.89V8.84276Z" fill="white" stroke="white" stroke-width="0.16" stroke-miterlimit="10"/>
<path d="M64.6966 14.8518H63.7925V8.84276H61.8336V8.00146H66.6569V8.84276H64.6966V14.8518Z" fill="white" stroke="white" stroke-width="0.16" stroke-miterlimit="10"/>
<path d="M70.1476 14.8518V8.00146H71.0502V14.8518H70.1476Z" fill="white" stroke="white" stroke-width="0.16" stroke-miterlimit="10"/>
<path d="M75.0514 14.8518H74.1546V8.84276H72.1884V8.00146H77.0176V8.84276H75.0514V14.8518Z" fill="white" stroke="white" stroke-width="0.16" stroke-miterlimit="10"/>
<path d="M86.1495 13.9704C85.4575 14.6632 84.6002 15.0089 83.5776 15.0089C82.5491 15.0089 81.6918 14.6632 80.9999 13.9704C80.3093 13.2791 79.9655 12.4307 79.9655 11.4265C79.9655 10.4224 80.3093 9.57397 80.9999 8.88265C81.6918 8.1899 82.5491 7.84424 83.5776 7.84424C84.5944 7.84424 85.4517 8.1899 86.1436 8.88836C86.84 9.5854 87.1838 10.4281 87.1838 11.4265C87.1838 12.4307 86.84 13.2791 86.1495 13.9704ZM81.6684 13.3962C82.1893 13.909 82.8227 14.1661 83.5776 14.1661C84.3266 14.1661 84.966 13.909 85.4809 13.3962C86.0003 12.8835 86.2636 12.225 86.2636 11.4265C86.2636 10.6281 86.0003 9.96963 85.4809 9.45685C84.966 8.94407 84.3266 8.68697 83.5776 8.68697C82.8227 8.68697 82.1893 8.94407 81.6684 9.45685C81.1491 9.96963 80.8858 10.6281 80.8858 11.4265C80.8858 12.225 81.1491 12.8835 81.6684 13.3962Z" fill="white" stroke="white" stroke-width="0.16" stroke-miterlimit="10"/>
<path d="M88.4522 14.8518V8.00146H89.5494L92.961 13.3292H93.0005L92.961 12.0123V8.00146H93.8637V14.8518H92.9215L89.349 9.26127H89.3095L89.349 10.5839V14.8518H88.4522Z" fill="white" stroke="white" stroke-width="0.16" stroke-miterlimit="10"/>
<path d="M79.7432 24.8559C76.9942 24.8559 74.7486 26.8984 74.7486 29.7166C74.7486 32.5119 76.9942 34.5758 79.7432 34.5758C82.4979 34.5758 84.7436 32.5119 84.7436 29.7166C84.7436 26.8984 82.4979 24.8559 79.7432 24.8559ZM79.7432 32.6618C78.2348 32.6618 76.9372 31.4463 76.9372 29.7166C76.9372 27.964 78.2348 26.7699 79.7432 26.7699C81.2515 26.7699 82.555 27.964 82.555 29.7166C82.555 31.4463 81.2515 32.6618 79.7432 32.6618ZM68.8455 24.8559C66.0908 24.8559 63.851 26.8984 63.851 29.7166C63.851 32.5119 66.0908 34.5758 68.8455 34.5758C71.5988 34.5758 73.8401 32.5119 73.8401 29.7166C73.8401 26.8984 71.5988 24.8559 68.8455 24.8559ZM68.8455 32.6618C67.3358 32.6618 66.0337 31.4463 66.0337 29.7166C66.0337 27.964 67.3358 26.7699 68.8455 26.7699C70.3539 26.7699 71.6515 27.964 71.6515 29.7166C71.6515 31.4463 70.3539 32.6618 68.8455 32.6618ZM55.8778 26.3457V28.4111H60.9295C60.7817 29.5652 60.3867 30.4136 59.781 31.005C59.0437 31.7191 57.8953 32.5119 55.8778 32.5119C52.7691 32.5119 50.3347 30.0622 50.3347 27.027C50.3347 23.9918 52.7691 21.5421 55.8778 21.5421C57.5588 21.5421 58.7818 22.1835 59.6845 23.0148L61.1752 21.5593C59.9127 20.3823 58.2332 19.4782 55.8778 19.4782C51.6148 19.4782 48.032 22.8648 48.032 27.027C48.032 31.1892 51.6148 34.5758 55.8778 34.5758C58.182 34.5758 59.9127 33.8388 61.2733 32.4562C62.6675 31.0949 63.102 29.181 63.102 27.6355C63.102 27.1555 63.061 26.7142 62.9878 26.3457H55.8778ZM108.904 27.9469C108.493 26.8599 107.225 24.8559 104.641 24.8559C102.081 24.8559 99.9496 26.8256 99.9496 29.7166C99.9496 32.439 102.059 34.5758 104.887 34.5758C107.174 34.5758 108.493 33.2146 109.036 32.4219L107.339 31.3178C106.773 32.1262 106.002 32.6618 104.887 32.6618C103.78 32.6618 102.985 32.1662 102.476 31.1892L109.134 28.4996L108.904 27.9469ZM102.116 29.5652C102.059 27.6912 103.607 26.7313 104.716 26.7313C105.585 26.7313 106.322 27.1556 106.568 27.7626L102.116 29.5652ZM96.7047 34.2802H98.8933V19.9967H96.7047V34.2802ZM93.1205 25.9386H93.0473C92.5558 25.3701 91.618 24.8559 90.4301 24.8559C87.9372 24.8559 85.6579 26.9927 85.6579 29.7323C85.6579 32.4562 87.9372 34.5758 90.4301 34.5758C91.618 34.5758 92.5558 34.0573 93.0473 33.4717H93.1205V34.1688C93.1205 36.027 92.1037 37.0255 90.4637 37.0255C89.1266 37.0255 88.2971 36.0827 87.9548 35.29L86.0514 36.0656C86.6001 37.354 88.0528 38.9395 90.4637 38.9395C93.0298 38.9395 95.195 37.4654 95.195 33.8788V25.1516H93.1205V25.9386ZM90.6174 32.6618C89.109 32.6618 87.8465 31.4292 87.8465 29.7323C87.8465 28.0197 89.109 26.7699 90.6174 26.7699C92.1037 26.7699 93.2756 28.0197 93.2756 29.7323C93.2756 31.4292 92.1037 32.6618 90.6174 32.6618ZM119.151 19.9967H113.916V34.2802H116.099V28.8681H119.151C121.575 28.8681 123.952 27.1555 123.952 24.4317C123.952 21.7092 121.569 19.9967 119.151 19.9967ZM119.208 26.8813H116.099V21.9835H119.208C120.838 21.9835 121.768 23.3047 121.768 24.4317C121.768 25.5372 120.838 26.8813 119.208 26.8813ZM132.701 24.8288C131.124 24.8288 129.484 25.5087 128.809 27.0156L130.746 27.8083C131.163 27.0156 131.93 26.7585 132.74 26.7585C133.873 26.7585 135.021 27.4227 135.039 28.5953V28.7453C134.644 28.5225 133.798 28.1925 132.758 28.1925C130.672 28.1925 128.546 29.3138 128.546 31.4063C128.546 33.3203 130.255 34.553 132.176 34.553C133.645 34.553 134.455 33.9059 134.964 33.1532H135.039V34.2573H137.147V28.7782C137.147 26.2457 135.21 24.8288 132.701 24.8288ZM132.438 32.6561C131.724 32.6561 130.729 32.3105 130.729 31.4463C130.729 30.3408 131.969 29.9166 133.043 29.9166C134.004 29.9166 134.455 30.1237 135.039 30.3965C134.868 31.7191 133.702 32.6561 132.438 32.6561ZM144.827 25.1416L142.318 31.3335H142.244L139.65 25.1416H137.296L141.193 33.7945L138.97 38.6095H141.25L147.256 25.1416H144.827ZM125.152 34.2802H127.341V19.9967H125.152V34.2802Z" fill="white"/>
<path d="M12.2128 8.61396C11.869 8.96533 11.6701 9.51239 11.6701 10.2209V35.4913C11.6701 36.1997 11.869 36.7468 12.2128 37.0982L12.2977 37.1753L26.8015 23.0203V22.6861L12.2977 8.53112L12.2128 8.61396Z" fill="url(#paint0_linear_135_473)"/>
<path d="M31.6307 27.7412L26.8015 23.0205V22.6863L31.6365 17.9656L31.7448 18.027L37.4708 21.2079C39.105 22.1106 39.105 23.5961 37.4708 24.5046L31.7448 27.6798L31.6307 27.7412Z" fill="url(#paint1_linear_135_473)"/>
<path d="M31.7448 27.6798L26.8015 22.8534L12.2128 37.0984C12.7556 37.6555 13.6407 37.7226 14.6472 37.1655L31.7448 27.6798Z" fill="url(#paint2_linear_135_473)"/>
<path d="M31.7448 18.0271L14.6472 8.54143C13.6407 7.99009 12.7556 8.05722 12.2128 8.61427L26.8015 22.8535L31.7448 18.0271Z" fill="url(#paint3_linear_135_473)"/>
<defs>
<linearGradient id="paint0_linear_135_473" x1="25.5137" y1="35.7544" x2="6.34229" y2="16.1184" gradientUnits="userSpaceOnUse">
<stop stop-color="#00A0FF"/>
<stop offset="0.0066" stop-color="#00A1FF"/>
<stop offset="0.2601" stop-color="#00BEFF"/>
<stop offset="0.5122" stop-color="#00D2FF"/>
<stop offset="0.7604" stop-color="#00DFFF"/>
<stop offset="1" stop-color="#00E3FF"/>
</linearGradient>
<linearGradient id="paint1_linear_135_473" x1="39.5987" y1="22.8518" x2="11.2794" y2="22.8518" gradientUnits="userSpaceOnUse">
<stop stop-color="#FFE000"/>
<stop offset="0.4087" stop-color="#FFBD00"/>
<stop offset="0.7754" stop-color="#FFA500"/>
<stop offset="1" stop-color="#FF9C00"/>
</linearGradient>
<linearGradient id="paint2_linear_135_473" x1="29.0568" y1="20.2297" x2="3.05873" y2="-6.39827" gradientUnits="userSpaceOnUse">
<stop stop-color="#FF3A44"/>
<stop offset="1" stop-color="#C31162"/>
</linearGradient>
<linearGradient id="paint3_linear_135_473" x1="8.54053" y1="45.5058" x2="20.1498" y2="33.6153" gradientUnits="userSpaceOnUse">
<stop stop-color="#32A071"/>
<stop offset="0.0685" stop-color="#2DA771"/>
<stop offset="0.4762" stop-color="#15CF74"/>
<stop offset="0.8009" stop-color="#06E775"/>
<stop offset="1" stop-color="#00F076"/>
</linearGradient>
</defs>
</svg>
