<svg width="30" height="30" viewBox="0 0 30 30" fill="none" xmlns="http://www.w3.org/2000/svg">
<g clip-path="url(#clip0_135_272)">
<path d="M17.8711 15.0029C17.8711 16.5886 16.5857 17.874 15 17.874C13.4143 17.874 12.1289 16.5886 12.1289 15.0029C12.1289 13.4172 13.4143 12.1318 15 12.1318C16.5857 12.1318 17.8711 13.4172 17.8711 15.0029Z" fill="white"/>
<path d="M21.7145 9.92332C21.5765 9.54933 21.3563 9.21082 21.0702 8.93295C20.7923 8.64685 20.454 8.42667 20.0798 8.28865C19.7763 8.17078 19.3204 8.03047 18.4806 7.99225C17.5722 7.95082 17.2998 7.94189 15 7.94189C12.7 7.94189 12.4276 7.95059 11.5194 7.99202C10.6796 8.03047 10.2235 8.17078 9.9202 8.28865C9.54597 8.42667 9.20746 8.64685 8.92982 8.93295C8.64372 9.21082 8.42354 9.5491 8.28529 9.92332C8.16742 10.2268 8.02711 10.683 7.98889 11.5228C7.94746 12.431 7.93854 12.7033 7.93854 15.0034C7.93854 17.3032 7.94746 17.5755 7.98889 18.484C8.02711 19.3237 8.16742 19.7797 8.28529 20.0832C8.42354 20.4574 8.64349 20.7957 8.9296 21.0735C9.20746 21.3596 9.54575 21.5798 9.91997 21.7178C10.2235 21.8359 10.6796 21.9762 11.5194 22.0145C12.4276 22.0559 12.6997 22.0646 14.9998 22.0646C17.3 22.0646 17.5724 22.0559 18.4804 22.0145C19.3201 21.9762 19.7763 21.8359 20.0798 21.7178C20.831 21.4281 21.4247 20.8344 21.7145 20.0832C21.8324 19.7797 21.9727 19.3237 22.0111 18.484C22.0525 17.5755 22.0612 17.3032 22.0612 15.0034C22.0612 12.7033 22.0525 12.431 22.0111 11.5228C21.9729 10.683 21.8326 10.2268 21.7145 9.92332ZM15 19.426C12.5571 19.426 10.5769 17.446 10.5769 15.0031C10.5769 12.5603 12.5571 10.5802 15 10.5802C17.4426 10.5802 19.4229 12.5603 19.4229 15.0031C19.4229 17.446 17.4426 19.426 15 19.426ZM19.5978 11.439C19.0269 11.439 18.5641 10.9762 18.5641 10.4053C18.5641 9.83452 19.0269 9.37172 19.5978 9.37172C20.1686 9.37172 20.6314 9.83452 20.6314 10.4053C20.6312 10.9762 20.1686 11.439 19.5978 11.439Z" fill="white"/>
<path d="M15 0.00292969C6.717 0.00292969 0 6.71992 0 15.0029C0 23.2859 6.717 30.0029 15 30.0029C23.283 30.0029 30 23.2859 30 15.0029C30 6.71992 23.283 0.00292969 15 0.00292969ZM23.5613 18.554C23.5197 19.4709 23.3739 20.0969 23.161 20.6449C22.7135 21.8019 21.7989 22.7165 20.6419 23.1639C20.0942 23.3768 19.468 23.5224 18.5513 23.5643C17.6328 23.6061 17.3394 23.6162 15.0002 23.6162C12.6608 23.6162 12.3676 23.6061 11.4489 23.5643C10.5322 23.5224 9.90601 23.3768 9.35829 23.1639C8.78334 22.9476 8.26286 22.6087 7.83257 22.1704C7.39449 21.7403 7.05551 21.2196 6.83922 20.6449C6.62636 20.0972 6.48056 19.4709 6.4389 18.5543C6.39656 17.6355 6.38672 17.3421 6.38672 15.0029C6.38672 12.6638 6.39656 12.3703 6.43867 11.4518C6.48033 10.5349 6.6259 9.90894 6.83876 9.36099C7.05505 8.78627 7.39426 8.26556 7.83257 7.83549C8.26263 7.39719 8.78334 7.05821 9.35806 6.84192C9.90601 6.62906 10.532 6.48349 11.4489 6.4416C12.3674 6.39972 12.6608 6.38965 15 6.38965C17.3392 6.38965 17.6326 6.39972 18.5511 6.44183C19.468 6.48349 20.094 6.62906 20.6419 6.84169C21.2167 7.05798 21.7374 7.39719 22.1677 7.83549C22.6057 8.26579 22.9449 8.78627 23.161 9.36099C23.3741 9.90894 23.5197 10.5349 23.5616 11.4518C23.6034 12.3703 23.6133 12.6638 23.6133 15.0029C23.6133 17.3421 23.6034 17.6355 23.5613 18.554Z" fill="white"/>
</g>
<defs>
<clipPath id="clip0_135_272">
<rect width="30" height="30" fill="white" transform="translate(0 0.00292969)"/>
</clipPath>
</defs>
</svg>
