<svg width="210" height="75" viewBox="0 0 210 75" fill="none" xmlns="http://www.w3.org/2000/svg">
<g clip-path="url(#clip0_135_356)">
<path fill-rule="evenodd" clip-rule="evenodd" d="M91.9276 12.7227C91.9276 12.7227 91.9276 12.7227 96.3445 12.7227C97.954 12.7227 98.7648 13.5178 98.7648 15.313C98.7648 15.313 98.7648 15.313 98.7648 21.6745C98.7648 21.6745 98.7648 21.6745 107.417 21.6745C107.417 21.6745 107.417 21.6745 107.417 15.313C107.417 13.5178 108.216 12.7227 110.031 12.7227C110.031 12.7227 110.031 12.7227 114.254 12.7227C114.254 12.7227 114.254 12.7227 114.254 16.9034C114.254 16.9034 114.254 16.9034 112.451 16.9034L112.246 17.1082C112.246 17.1082 112.246 17.1082 112.246 35.0118C112.246 35.0118 112.246 35.0118 107.417 35.0118C107.417 35.0118 107.417 35.0118 107.417 26.06C107.417 26.06 107.417 26.06 98.7648 26.06C98.7648 26.06 98.7648 26.06 98.7648 35.0118C98.7648 35.0118 98.7648 35.0118 93.9364 35.0118C93.9364 35.0118 93.9364 35.0118 93.9364 17.1082C93.9364 17.1082 93.9364 16.9034 93.7307 16.9034C93.7307 16.9034 93.7307 16.9034 91.9276 16.9034C91.9276 16.9034 91.9276 16.9034 91.9276 12.7227Z" fill="white"/>
<path fill-rule="evenodd" clip-rule="evenodd" d="M126.925 12.3252L127.033 12.3372V16.9276L126.925 16.9035C123.306 16.9035 120.487 19.8915 120.487 23.6746C120.487 27.6505 123.306 30.8312 126.925 30.8312L127.033 30.8071V35.3975L126.925 35.4095C120.487 35.4095 115.259 30.2409 115.259 23.6746C115.259 17.3011 120.487 12.3252 126.925 12.3252Z" fill="white"/>
<path fill-rule="evenodd" clip-rule="evenodd" d="M127.033 12.3374L129.272 12.5543C134.585 13.5904 138.59 18.0964 138.59 23.6748C138.59 29.4097 134.585 34.0964 129.272 35.1687L127.033 35.3976V30.8073L129.49 30.2772C131.862 29.1928 133.568 26.6507 133.568 23.6748C133.568 20.8314 131.862 18.4458 129.49 17.4338L127.033 16.9278V12.3374Z" fill="white"/>
<path fill-rule="evenodd" clip-rule="evenodd" d="M139.595 12.7227C139.595 12.7227 139.595 12.7227 146.335 12.7227H149.554V16.9034H149.251C148.852 16.9034 148.041 16.9034 146.432 16.9034C146.432 16.9034 146.432 16.9034 146.432 21.4817C146.432 21.4817 146.432 21.4817 147.799 21.4817H149.554V25.4576H148.525C148.017 25.4576 147.339 25.4576 146.432 25.4576C146.432 25.4576 146.432 25.4576 146.432 30.4335C146.432 30.6383 146.432 30.6383 146.638 30.6383C146.638 30.6383 146.638 30.6383 148.078 30.6383H149.554V35.0118H149.13C148.404 35.0118 146.94 35.0118 144.024 35.0118C142.414 35.0118 141.616 34.2166 141.616 32.4215V16.9034C141.616 16.9034 141.616 16.9034 139.595 16.9034C139.595 16.9034 139.595 16.9034 139.595 12.7227Z" fill="white"/>
<path fill-rule="evenodd" clip-rule="evenodd" d="M149.554 12.7227H149.651C154.08 12.7227 156.694 15.1082 156.694 18.6986C156.694 20.8793 155.689 22.2769 154.685 23.2769C156.5 24.0721 157.698 26.06 157.698 28.2407C157.698 32.4215 154.479 35.0118 149.857 35.0118C149.857 35.0118 149.857 35.0118 149.772 35.0118H149.554V30.6383H150.05C151.66 30.6383 152.676 29.6383 152.676 28.048C152.676 26.4576 151.66 25.4576 150.05 25.4576C150.05 25.4576 150.05 25.4576 149.602 25.4576H149.554V21.4817H149.651C151.067 21.4817 151.865 20.4817 151.865 19.0962C151.865 17.6986 151.067 16.9034 149.651 16.9034C149.651 16.9034 149.651 16.9034 149.602 16.9034H149.554V12.7227Z" fill="white"/>
<path fill-rule="evenodd" clip-rule="evenodd" d="M166.956 12.7227C166.956 12.7227 166.956 12.7227 168.989 12.7227H169.364V19.0962C169.17 19.4937 168.964 20.0841 168.964 20.6865C168.964 20.6865 168.964 20.6865 167.355 25.2648C167.355 25.2648 167.355 25.2648 169.061 25.2648H169.364V29.4335H168.275C167.658 29.4335 166.956 29.4335 166.157 29.4335C166.157 29.4335 166.157 29.4335 164.741 33.0239C164.342 34.4094 163.543 35.0118 161.934 35.0118C161.934 35.0118 161.934 35.0118 158.908 35.0118C158.908 35.0118 158.908 35.0118 158.908 30.6383C158.908 30.6383 158.908 30.6383 159.913 30.6383C160.324 30.6383 160.324 30.6383 160.518 30.4335C160.518 30.4335 160.518 30.4335 166.956 12.7227Z" fill="white"/>
<path fill-rule="evenodd" clip-rule="evenodd" d="M169.364 12.7227H171.784C171.784 12.7227 171.784 12.7227 178.222 30.4335C178.416 30.6383 178.416 30.6383 178.815 30.6383C178.815 30.6383 178.815 30.6383 179.626 30.6383C179.626 30.6383 179.626 30.6383 179.626 35.0118C179.626 35.0118 179.626 35.0118 176.806 35.0118C175.197 35.0118 174.398 34.4094 173.987 32.819C173.987 32.819 173.987 32.819 172.583 29.4335C172.583 29.4335 172.583 29.4335 169.872 29.4335H169.364V25.2648H171.373C171.373 25.2648 171.373 25.2648 169.775 20.6865C169.775 20.0841 169.57 19.4937 169.364 19.0962V12.7227Z" fill="white"/>
<path fill-rule="evenodd" clip-rule="evenodd" d="M91.9276 41.3735C91.9276 41.3735 91.9276 41.3735 109.426 41.3735C111.036 41.3735 112.04 42.1687 112.04 43.9639C112.04 43.9639 112.04 43.9639 112.04 59.0844C112.04 59.2772 112.04 59.2772 112.246 59.2772C112.246 59.2772 112.246 59.2772 113.855 59.2772C113.855 59.2772 113.855 59.2772 113.855 63.6627C113.855 63.6627 113.855 63.6627 109.632 63.6627C107.817 63.6627 107.018 62.8675 107.018 61.0723C107.018 61.0723 107.018 61.0723 107.018 45.7591C107.018 45.7591 107.018 45.5543 106.812 45.5543C106.812 45.5543 106.812 45.5543 98.7648 45.5543C98.7648 45.5543 98.7648 45.5543 98.7648 63.6627C98.7648 63.6627 98.7648 63.6627 93.9364 63.6627C93.9364 63.6627 93.9364 63.6627 93.9364 45.5543C93.9364 45.5543 93.9364 45.5543 91.9276 45.5543C91.9276 45.5543 91.9276 45.5543 91.9276 41.3735Z" fill="white"/>
<path fill-rule="evenodd" clip-rule="evenodd" d="M126.525 40.9761L126.622 40.9881V45.5785L126.525 45.5544C122.895 45.5544 120.087 48.5423 120.087 52.3255C120.087 56.3014 122.895 59.4821 126.525 59.4821L126.622 59.458V64.0484L126.525 64.0604C120.087 64.0604 115.053 58.8797 115.053 52.3255C115.053 45.952 120.087 40.9761 126.525 40.9761Z" fill="white"/>
<path fill-rule="evenodd" clip-rule="evenodd" d="M126.622 40.9878L128.933 41.2047C134.343 42.2408 138.191 46.7468 138.191 52.3251C138.191 58.0601 134.343 62.7468 128.933 63.8191L126.622 64.048V59.4577L129.175 58.9276C131.584 57.8432 133.169 55.301 133.169 52.3251C133.169 49.4818 131.584 47.0962 129.175 46.0842L126.622 45.5782V40.9878Z" fill="white"/>
<path fill-rule="evenodd" clip-rule="evenodd" d="M139.195 41.3735C139.195 41.3735 139.195 41.3735 143.624 41.3735C145.234 41.3735 146.033 42.1687 146.033 43.9639C146.033 43.9639 146.033 43.9639 146.033 59.0844C146.033 59.2772 146.033 59.2772 146.238 59.2772C146.238 59.2772 146.238 59.2772 152.071 59.2772C152.071 59.2772 152.071 59.2772 152.071 41.3735C152.071 41.3735 152.071 41.3735 156.899 41.3735C156.899 41.3735 156.899 41.3735 156.899 59.2772C156.899 59.2772 156.899 59.2772 162.732 59.2772C162.938 59.2772 162.938 59.2772 162.938 59.0844C162.938 59.0844 162.938 59.0844 162.938 43.9639C162.938 42.1687 163.737 41.3735 165.346 41.3735C165.346 41.3735 165.346 41.3735 169.775 41.3735C169.775 41.3735 169.775 41.3735 169.775 45.5543C169.775 45.5543 169.775 45.5543 167.96 45.5543C167.754 45.5543 167.754 45.7591 167.754 45.7591C167.754 45.7591 167.754 45.7591 167.754 61.0723C167.754 62.8675 166.956 63.6627 165.346 63.6627C165.346 63.6627 165.346 63.6627 143.818 63.6627C142.015 63.6627 141.204 62.8675 141.204 61.0723C141.204 61.0723 141.204 61.0723 141.204 45.7591C141.204 45.7591 141.204 45.5543 141.01 45.5543C141.01 45.5543 141.01 45.5543 139.195 45.5543C139.195 45.5543 139.195 45.5543 139.195 41.3735Z" fill="white"/>
<path fill-rule="evenodd" clip-rule="evenodd" d="M173.587 41.3735C173.587 41.3735 173.587 41.3735 188.677 41.3735C190.493 41.3735 191.098 42.1687 191.098 43.7591C191.098 43.7591 191.098 43.7591 191.098 47.5422H186.669C186.669 47.5422 186.669 47.5422 186.669 45.7591C186.669 45.5543 186.669 45.5543 186.463 45.5543C186.463 45.5543 186.463 45.5543 183.655 45.5543C183.655 45.5543 183.655 45.5543 183.655 63.6627C183.655 63.6627 183.655 63.6627 178.815 63.6627C178.815 63.6627 178.815 63.6627 178.815 45.5543C178.815 45.5543 178.815 45.5543 176.007 45.5543C175.802 45.5543 175.802 45.5543 175.802 45.7591C175.802 45.7591 175.802 45.7591 175.802 47.5422C175.802 47.5422 175.802 47.5422 171.373 47.5422C171.373 47.5422 171.373 47.5422 171.373 43.7591C171.373 42.1687 171.978 41.3735 173.587 41.3735Z" fill="white"/>
<path fill-rule="evenodd" clip-rule="evenodd" d="M197.33 41.3735C197.33 41.3735 197.33 41.3735 199.363 41.3735H199.738V47.747C199.532 48.1446 199.339 48.735 199.339 49.3374C199.339 49.3374 199.339 49.3374 197.729 53.9157C197.729 53.9157 197.729 53.9157 199.423 53.9157H199.738V58.0844H198.649C198.032 58.0844 197.33 58.0844 196.519 58.0844C196.519 58.0844 196.519 58.0844 195.115 61.4699C194.716 63.0603 193.905 63.6627 192.296 63.6627C192.296 63.6627 192.296 63.6627 189.283 63.6627C189.283 63.6627 189.283 63.6627 189.283 59.2772C189.283 59.2772 189.283 59.2772 190.287 59.2772C190.698 59.2772 190.698 59.2772 190.892 59.0844C190.892 59.0844 190.892 59.0844 197.33 41.3735Z" fill="white"/>
<path fill-rule="evenodd" clip-rule="evenodd" d="M199.738 41.3735H202.146C202.146 41.3735 202.146 41.3735 208.596 59.0844C208.79 59.2772 208.79 59.2772 209.201 59.2772H210C210 59.2772 210 59.2772 210 63.6627C210 63.6627 210 63.6627 207.18 63.6627C205.571 63.6627 204.772 63.0603 204.361 61.4699C204.361 61.4699 204.361 61.4699 202.957 58.0844C202.957 58.0844 202.957 58.0844 200.246 58.0844H199.738V53.9157H201.747C201.747 53.9157 201.747 53.9157 200.137 49.3374C200.137 48.735 199.944 48.1446 199.738 47.747V41.3735Z" fill="white"/>
<path fill-rule="evenodd" clip-rule="evenodd" d="M60.924 22.2049C61.154 22.1326 61.4565 22.2772 61.759 22.6748C61.759 22.6748 61.759 22.6748 75.4335 36.0001C76.2322 36.7953 76.2322 38.0001 75.4335 38.5905C75.4335 38.5905 75.4335 38.5905 61.759 52.1206C61.4565 52.5182 61.154 52.6146 60.924 52.4941C60.6941 52.3736 60.5489 52.0242 60.5489 51.5182V23.0724C60.5489 22.5784 60.6941 22.2772 60.924 22.2049Z" fill="white"/>
<path fill-rule="evenodd" clip-rule="evenodd" d="M37.5322 0H38.5003L39.4321 0.385544C39.4321 0.385544 39.4321 0.385543 53.5059 14.3133C54.111 15.1084 53.9053 15.7108 52.9009 15.7108C52.9009 15.7108 52.9009 15.7108 47.068 15.7108C46.0636 15.7108 45.2649 16.506 45.2649 17.506C45.2649 17.506 45.2649 17.506 45.2649 27.8434C45.2649 28.8434 44.4541 29.6386 43.244 29.6386C43.244 29.6386 43.244 29.6386 32.9942 29.6386C31.9898 29.6386 31.179 28.8434 31.179 27.8434C31.179 27.8434 31.179 27.8434 31.179 17.506C31.179 16.506 30.3803 15.7108 29.3638 15.7108H23.1316C22.1272 15.7108 21.9215 15.1084 22.5266 14.3133C22.5266 14.3133 22.5266 14.3133 36.6125 0.385544L37.5322 0Z" fill="white"/>
<path fill-rule="evenodd" clip-rule="evenodd" d="M15.4836 21.9035C15.7377 22.024 15.8951 22.3734 15.8951 22.8794V51.9156C15.8951 52.4216 15.7377 52.7228 15.4836 52.8192C15.2416 52.9156 14.8907 52.8192 14.4792 52.518C14.4792 52.518 14.4792 52.518 0.599015 38.5903C-0.199672 37.9999 -0.199672 36.7951 0.599015 35.9999C0.599015 35.9999 0.599016 35.9999 14.4792 22.277C14.8907 21.8794 15.2416 21.783 15.4836 21.9035Z" fill="white"/>
<path fill-rule="evenodd" clip-rule="evenodd" d="M32.9942 44.7593C32.9942 44.7593 32.9942 44.7593 43.244 44.7593C44.4541 44.7593 45.2649 45.5545 45.2649 46.5545C45.2649 46.5545 45.2649 46.5545 45.2649 57.4942C45.2649 58.687 46.0636 59.4822 47.068 59.4822H52.5015C53.5059 59.4822 53.9053 60.0725 53.1066 60.6749C53.1066 60.6749 53.1066 60.6749 39.4321 74.3978C39.0207 74.7954 38.5245 75.0002 38.0162 75.0002C37.5201 75.0002 37.0118 74.7954 36.6125 74.3978C36.6125 74.3978 36.6125 74.3978 22.938 60.6749C22.1272 60.0725 22.5266 59.4822 23.531 59.4822C23.531 59.4822 23.531 59.4822 29.3638 59.4822C30.3803 59.4822 31.179 58.687 31.179 57.4942C31.179 57.4942 31.179 57.4942 31.179 46.5545C31.179 45.5545 31.9898 44.7593 32.9942 44.7593Z" fill="white"/>
</g>
<defs>
<clipPath id="clip0_135_356">
<rect width="210" height="75" fill="white"/>
</clipPath>
</defs>
</svg>
