<svg width="18" height="17" viewBox="0 0 18 17" fill="none" xmlns="http://www.w3.org/2000/svg">
<path d="M7.61627 12.7501C8.8589 12.7498 10.0657 12.3289 11.0446 11.5544L14.1221 14.6682L15.112 13.6667L12.0345 10.5528C12.8004 9.56234 13.2166 8.34102 13.2169 7.08341C13.2169 3.95896 10.7043 1.41675 7.61627 1.41675C4.52822 1.41675 2.01562 3.95896 2.01562 7.08341C2.01562 10.2079 4.52822 12.7501 7.61627 12.7501ZM7.61627 2.83341C9.93284 2.83341 11.8168 4.73954 11.8168 7.08341C11.8168 9.42729 9.93284 11.3334 7.61627 11.3334C5.2997 11.3334 3.41579 9.42729 3.41579 7.08341C3.41579 4.73954 5.2997 2.83341 7.61627 2.83341Z" fill="#B8B9B9"/>
</svg>
