<svg width="32" height="32" viewBox="0 0 32 32" fill="none" xmlns="http://www.w3.org/2000/svg">
<g clip-path="url(#clip0_135_88)">
<path d="M27.3333 2.66675H26C25.632 2.66675 25.3333 2.96544 25.3333 3.33344C25.3333 3.70144 25.632 4.00006 26 4.00006H27.3333C29.172 4.00006 30.6666 5.49475 30.6666 7.33337V27.3334C30.6666 29.1721 29.1719 30.6667 27.3333 30.6667H4.66669C2.828 30.6667 1.33337 29.172 1.33337 27.3334V7.33337C1.33331 5.49475 2.828 4.00006 4.66669 4.00006H6C6.368 4.00006 6.66669 3.70137 6.66669 3.33337C6.66669 2.96537 6.368 2.66675 6 2.66675H4.66669C2.09331 2.66675 0 4.76006 0 7.33337V27.3334C0 29.9068 2.09331 32.0001 4.66669 32.0001H27.3334C29.9067 32.0001 32 29.9068 32 27.3334V7.33337C32 4.76006 29.9067 2.66675 27.3333 2.66675Z" fill="#ED1C24"/>
<path d="M20.6667 2.66675H11.3333C10.9653 2.66675 10.6666 2.96544 10.6666 3.33344C10.6666 3.70144 10.9653 4.00006 11.3333 4.00006H20.6666C21.0346 4.00006 21.3333 3.70137 21.3333 3.33337C21.3333 2.96537 21.0347 2.66675 20.6667 2.66675Z" fill="#ED1C24"/>
<path d="M31.3333 9.33325H0.666687C0.298687 9.33325 0 9.63194 0 9.99994C0 10.3679 0.298687 10.6666 0.666687 10.6666H31.3334C31.7014 10.6666 32.0001 10.3679 32.0001 9.99994C32.0001 9.63194 31.7013 9.33325 31.3333 9.33325Z" fill="#ED1C24"/>
<path d="M8.66669 0C8.29869 0 8 0.298687 8 0.666687V6C8 6.368 8.29869 6.66669 8.66669 6.66669C9.03469 6.66669 9.33337 6.368 9.33337 6V0.666687C9.33331 0.298687 9.03469 0 8.66669 0Z" fill="#ED1C24"/>
<path d="M23.3333 0C22.9653 0 22.6666 0.298687 22.6666 0.666687V6C22.6666 6.368 22.9653 6.66669 23.3333 6.66669C23.7013 6.66669 24 6.368 24 6V0.666687C24 0.298687 23.7013 0 23.3333 0Z" fill="#ED1C24"/>
<path d="M13.3307 20.6668C14.1414 20.0588 14.6667 19.0881 14.6667 18.0001C14.6667 16.1614 13.172 14.6667 11.3334 14.6667C9.49469 14.6667 8 16.1614 8 18.0001C8 18.3681 8.29869 18.6668 8.66669 18.6668C9.03469 18.6668 9.33337 18.3681 9.33337 18.0001C9.33337 16.8974 10.2307 16.0001 11.3334 16.0001C12.4361 16.0001 13.3334 16.8974 13.3334 18.0001C13.3334 19.1028 12.4361 20.0001 11.3334 20.0001H10C9.632 20.0001 9.33331 20.2988 9.33331 20.6668C9.33331 21.0348 9.632 21.3334 10 21.3334H11.3333C12.436 21.3334 13.3333 22.2308 13.3333 23.3334C13.3333 24.4361 12.436 25.3334 11.3333 25.3334C10.2306 25.3334 9.33331 24.4361 9.33331 23.3334C9.33331 22.9654 9.03463 22.6668 8.66663 22.6668C8.29863 22.6668 8 22.9654 8 23.3334C8 25.1721 9.49469 26.6667 11.3333 26.6667C13.172 26.6667 14.6666 25.172 14.6666 23.3334C14.6667 22.2454 14.1413 21.2748 13.3307 20.6668Z" fill="#ED1C24"/>
<path d="M20.9227 14.7172C20.6747 14.6145 20.388 14.6692 20.196 14.8612L17.5293 17.5279C17.2693 17.7879 17.2693 18.2106 17.5293 18.4706C17.7893 18.7306 18.212 18.7306 18.472 18.4706L20 16.9426V25.9999C20 26.3679 20.2987 26.6666 20.6667 26.6666C21.0347 26.6666 21.3334 26.3679 21.3334 25.9999V15.3332C21.3333 15.0639 21.1707 14.8199 20.9227 14.7172Z" fill="#ED1C24"/>
<path d="M23.3333 25.3333H18C17.632 25.3333 17.3333 25.6319 17.3333 25.9999C17.3333 26.3679 17.632 26.6666 18 26.6666H23.3333C23.7013 26.6666 24 26.3679 24 25.9999C24 25.6319 23.7013 25.3333 23.3333 25.3333Z" fill="#ED1C24"/>
</g>
<defs>
<clipPath id="clip0_135_88">
<rect width="32" height="32" fill="white"/>
</clipPath>
</defs>
</svg>
