<svg width="42" height="42" viewBox="0 0 42 42" fill="none" xmlns="http://www.w3.org/2000/svg">
<path d="M15.4 32.2C14.6299 32.2 13.9999 32.83 13.9999 33.6C13.9999 34.37 14.6299 35 15.4 35C16.17 35 16.8 34.37 16.8 33.6C16.8 32.83 16.17 32.2 15.4 32.2Z" fill="#ED1C24"/>
<path d="M33.6 32.2C32.83 32.2 32.2 32.83 32.2 33.6C32.2 34.37 32.83 35 33.6 35C34.3701 35 35.0001 34.37 35.0001 33.6C35.0001 32.83 34.3701 32.2 33.6 32.2Z" fill="#ED1C24"/>
<path d="M31.5 27.3H30.0999C29.6799 27.3 29.4 27.58 29.4 28C29.4 28.42 29.6799 28.7 30.0999 28.7H31.5C31.92 28.7 32.1999 28.42 32.1999 28C32.1999 27.58 31.92 27.3 31.5 27.3Z" fill="#ED1C24"/>
<path d="M21 20.3H11.2C10.78 20.3 10.5 20.58 10.5 21C10.5 21.42 10.78 21.7 11.2 21.7H21C21.42 21.7 21.7 21.42 21.7 21C21.7 20.58 21.42 20.3 21 20.3Z" fill="#ED1C24"/>
<path d="M41.09 25.83L38.36 24.71L36.6101 17.71C36.4001 16.73 35.5601 16.1 34.58 16.1H28.0001V14C28.0001 13.23 27.3701 12.6 26.6 12.6H15.3684C15.3889 12.3694 15.4 12.1361 15.4 11.9C15.4 7.63001 11.97 4.19995 7.69994 4.19995C3.42997 4.19995 0 7.62993 0 11.9C0 15.9339 3.06132 19.2175 6.99997 19.5684V24.5V32.9C6.99997 33.67 7.62997 34.3 8.4 34.3H11.2599C11.5958 36.2798 13.3284 37.8 15.4 37.8C17.4715 37.8 19.2042 36.2798 19.5401 34.3H29.4599C29.7958 36.2798 31.5285 37.8 33.6 37.8C35.6715 37.8 37.4042 36.2798 37.7401 34.3H40.6C41.37 34.3 42 33.67 42 32.9V27.16C42 26.5299 41.65 26.04 41.09 25.83ZM26.6 16.8V17.4999C26.6 21 23.8001 23.7999 20.3 23.7999H8.4V19.5999C9.00162 19.5331 9.58781 19.3994 10.1486 19.206C11.2251 18.8482 12.194 18.2604 12.9979 17.4999H22.4C22.82 17.4999 23.1 17.22 23.1 16.8C23.1 16.38 22.82 16.1 22.4 16.1H14.1745C14.5899 15.4644 14.9127 14.7601 15.12 14H26.6V16.8ZM1.40003 11.9C1.40003 8.39995 4.2 5.59998 7.70003 5.59998C11.2001 5.59998 14 8.39995 14 11.9C14 12.2858 13.9641 12.6624 13.8989 13.0284C13.8826 13.0697 13.8693 13.1136 13.86 13.16C13.7103 13.9459 13.4144 14.6709 13.0053 15.3127C12.9821 15.349 12.9598 15.3858 12.9358 15.4215C12.9233 15.4403 12.9098 15.4584 12.8971 15.4771C12.853 15.5414 12.8084 15.6053 12.7619 15.6677C12.7527 15.6801 12.7431 15.6922 12.7338 15.7045C12.683 15.7719 12.6312 15.8383 12.5778 15.9034C12.5692 15.914 12.5603 15.9244 12.5515 15.9349C12.4969 16.0007 12.4409 16.0655 12.3837 16.1289C12.3747 16.1389 12.3656 16.1489 12.3564 16.1589C12.3546 16.1609 12.3527 16.1627 12.351 16.1646C12.2058 16.2294 12.0957 16.3406 12.0321 16.4867C12.0093 16.5082 11.9871 16.5304 11.964 16.5516C11.9547 16.5601 11.9456 16.569 11.9362 16.5774C11.8689 16.6384 11.8 16.6977 11.7301 16.7557C11.7243 16.7604 11.7189 16.7654 11.7132 16.7701C11.6386 16.8315 11.5625 16.8911 11.485 16.949C11.4577 16.9694 11.4296 16.9885 11.4019 17.0085C11.3552 17.0423 11.3083 17.0762 11.2606 17.1087C11.2138 17.1405 11.1662 17.171 11.1185 17.2015C11.0894 17.2202 11.0604 17.2392 11.031 17.2574C10.9762 17.2913 10.9207 17.3241 10.8648 17.3562C10.8425 17.3691 10.8202 17.382 10.7977 17.3946C10.7364 17.4289 10.6746 17.4623 10.6121 17.4946C10.5958 17.503 10.5795 17.5113 10.5631 17.5195C10.4948 17.5541 10.4258 17.5878 10.3561 17.6199C10.349 17.6232 10.3418 17.6263 10.3346 17.6296C9.94842 17.8057 9.54171 17.9435 9.12007 18.0397C9.09759 18.0448 9.0752 18.0503 9.05256 18.0551C8.9894 18.0688 8.92566 18.081 8.86184 18.0929C8.82656 18.0993 8.79121 18.1057 8.75577 18.1116C8.69925 18.1211 8.64257 18.1298 8.58564 18.1377C8.53995 18.144 8.49401 18.1497 8.44799 18.155C8.39828 18.1609 8.34857 18.1667 8.29853 18.1714C8.23946 18.1769 8.17999 18.1809 8.12052 18.1847C8.08139 18.1873 8.04243 18.1906 8.00305 18.1924C7.90256 18.1971 7.80158 18.2 7.69986 18.2C4.2 18.2 1.40003 15.3999 1.40003 11.9ZM15.4 36.3999C13.86 36.3999 12.6 35.1399 12.6 33.6C12.6 32.06 13.86 30.8 15.4 30.8C16.9399 30.8 18.1999 32.06 18.1999 33.6C18.2 35.1399 16.94 36.3999 15.4 36.3999ZM33.6 36.3999C32.06 36.3999 30.8 35.1399 30.8 33.6C30.8 32.06 32.06 30.8 33.6 30.8C35.14 30.8 36.4 32.06 36.4 33.6C36.4 35.1399 35.14 36.3999 33.6 36.3999ZM40.6 32.9H37.7401C37.5038 31.5071 36.5759 30.3425 35.3248 29.7741C35.2971 29.7614 35.2695 29.7484 35.2414 29.7362C35.2238 29.7287 35.2059 29.7219 35.1882 29.7146C35.1428 29.6958 35.0972 29.6774 35.0511 29.6602C35.0386 29.6557 35.0259 29.6514 35.0134 29.6469C34.9621 29.6283 34.9104 29.6106 34.8581 29.594C34.8468 29.5904 34.8355 29.5871 34.8241 29.5836C34.7709 29.5673 34.7173 29.5519 34.6631 29.5377C34.6511 29.5346 34.6392 29.5315 34.6271 29.5284C34.574 29.515 34.5204 29.5025 34.4663 29.4911C34.4527 29.4882 34.4392 29.4853 34.4256 29.4826C34.3734 29.4721 34.3208 29.4627 34.2679 29.4542C34.2522 29.4516 34.2366 29.4489 34.2209 29.4466C34.17 29.4389 34.1185 29.4326 34.0669 29.4269C34.0494 29.4249 34.0321 29.4226 34.0145 29.4208C33.9629 29.4157 33.9109 29.412 33.8587 29.4088C33.8415 29.4078 33.8245 29.4061 33.8072 29.4053C33.7386 29.4019 33.6694 29.4 33.5998 29.4C33.5301 29.4 33.461 29.4019 33.3923 29.4053C33.3751 29.4061 33.358 29.4078 33.3408 29.4088C33.2886 29.412 33.2366 29.4157 33.185 29.4208C33.1674 29.4225 33.1501 29.4249 33.1326 29.4269C33.081 29.4326 33.0296 29.439 32.9786 29.4466C32.9629 29.4489 32.9473 29.4516 32.9315 29.4542C32.8786 29.4627 32.8261 29.4721 32.7739 29.4825C32.7602 29.4853 32.7467 29.4881 32.7331 29.491C32.6791 29.5024 32.6255 29.5149 32.5724 29.5283C32.5604 29.5314 32.5484 29.5344 32.5364 29.5376C32.4822 29.5519 32.4286 29.5672 32.3754 29.5836C32.3641 29.5871 32.3528 29.5904 32.3415 29.594C32.2891 29.6106 32.2375 29.6283 32.1861 29.6469C32.1736 29.6514 32.1611 29.6557 32.1486 29.6602C32.1024 29.6775 32.0567 29.6959 32.0112 29.7147C31.9936 29.722 31.9758 29.7288 31.9583 29.7363C31.9302 29.7484 31.9025 29.7616 31.8747 29.7743C30.6237 30.3428 29.6959 31.5073 29.4596 32.9001H19.5401C19.3038 31.5073 18.3761 30.3428 17.1252 29.7744C17.0973 29.7616 17.0696 29.7484 17.0414 29.7363C17.0239 29.7288 17.0061 29.722 16.9885 29.7147C16.9431 29.6959 16.8974 29.6776 16.8511 29.6602C16.8387 29.6557 16.8261 29.6514 16.8136 29.6469C16.7623 29.6283 16.7105 29.6106 16.6583 29.594C16.647 29.5905 16.6356 29.5872 16.6243 29.5836C16.5711 29.5673 16.5175 29.5519 16.4633 29.5376C16.4514 29.5345 16.4394 29.5314 16.4273 29.5283C16.3742 29.5149 16.3206 29.5024 16.2666 29.491C16.2529 29.4881 16.2394 29.4852 16.2258 29.4825C16.1736 29.472 16.121 29.4626 16.0681 29.4541C16.0525 29.4516 16.0369 29.4489 16.0211 29.4465C15.9702 29.4388 15.9187 29.4325 15.8671 29.4268C15.8497 29.4248 15.8323 29.4225 15.8147 29.4207C15.7631 29.4156 15.7111 29.4119 15.6589 29.4087C15.6417 29.4077 15.6247 29.406 15.6074 29.4052C15.5388 29.4018 15.4696 29.3999 15.4 29.3999C15.3303 29.3999 15.2612 29.4018 15.1925 29.4052C15.1753 29.406 15.1582 29.4077 15.141 29.4087C15.0888 29.4119 15.0368 29.4156 14.9852 29.4207C14.9677 29.4224 14.9503 29.4248 14.9328 29.4268C14.8812 29.4325 14.8298 29.4389 14.7788 29.4465C14.7631 29.4489 14.7475 29.4516 14.7318 29.4541C14.6789 29.4626 14.6263 29.472 14.5742 29.4825C14.5605 29.4852 14.5469 29.4881 14.5334 29.491C14.4793 29.5024 14.4258 29.5149 14.3726 29.5283C14.3606 29.5314 14.3486 29.5344 14.3366 29.5376C14.2825 29.5519 14.2289 29.5672 14.1757 29.5835C14.1643 29.587 14.1529 29.5904 14.1416 29.594C14.0894 29.6105 14.0377 29.6283 13.9863 29.6468C13.9738 29.6513 13.9611 29.6556 13.9487 29.6602C13.9025 29.6774 13.8569 29.6957 13.8115 29.7145C13.7938 29.7218 13.7759 29.7286 13.7584 29.7361C13.7303 29.7483 13.7027 29.7613 13.6749 29.774C12.4238 30.3424 11.4959 31.507 11.2596 32.8999H8.4V25.2H20.3C24.57 25.2 28.0001 21.77 28.0001 17.4999H34.58C34.9301 17.4999 35.21 17.7799 35.28 18.06L36.8747 24.5H31.71C31.22 24.5 30.8 24.08 30.8 23.59V20.3C30.8 19.88 30.5201 19.6 30.1001 19.6C29.6801 19.6 29.4001 19.88 29.4001 20.3V23.59C29.4001 24.85 30.4501 25.9 31.7101 25.9H37.5201L40.6001 27.09V32.9H40.6Z" fill="#ED1C24"/>
<path d="M9.80003 12.5999C10.22 12.5999 10.5 12.32 10.5 11.9C10.5 11.48 10.22 11.2 9.80003 11.2H8.40001V7.69997C8.40001 7.27997 8.12003 7 7.70003 7C7.28003 7 7.00006 7.27997 7.00006 7.69997V11.9C7.00006 12.32 7.28003 12.5999 7.70003 12.5999H9.80003Z" fill="#ED1C24"/>
</svg>
