<svg width="34" height="34" viewBox="0 0 34 34" fill="none" xmlns="http://www.w3.org/2000/svg">
<g clip-path="url(#clip0_135_115)">
<path d="M32.3 27.37C28.9179 25.5765 26.3237 24.5709 24.0144 24.1853L24.2534 23.8567C24.3667 23.7434 24.4234 23.5734 24.3667 23.4034L23.831 21.2607C25.2125 19.2782 26.0057 16.804 25.9534 14.45V11.0793C25.9918 11.0516 26.0297 11.023 26.0667 10.9934C26.8034 10.37 27.2001 9.46339 27.2001 8.55674C27.2001 4.30674 23.7434 0.850098 19.5501 0.850098H14.5067C10.2567 0.850098 6.80007 4.30674 6.74336 8.5001C6.74336 9.46345 7.14 10.3135 7.87671 10.9367C7.89524 10.951 7.91456 10.9643 7.93336 10.9782V14.45C7.93336 16.8113 8.75985 19.2936 10.1644 21.2792L9.63336 23.4033C9.63336 23.5167 9.63336 23.6867 9.74671 23.8567L9.98571 24.1853C7.67636 24.5709 5.08207 25.5765 1.70007 27.37C0.623355 27.88 0 28.9567 0 30.1467V32.5833C0 32.9233 0.226645 33.15 0.566645 33.15H33.4333C33.7733 33.15 33.9999 32.9233 33.9999 32.5833V30.1467C34 29.0134 33.32 27.9367 32.3 27.37ZM22.95 22.3834L23.1766 23.4034L22.5978 24.1982C22.5609 24.2284 22.5267 24.265 22.4966 24.31L19.38 28.6167L17.8521 25.1647C19.5005 24.9665 20.989 24.2026 22.227 23.0886C22.4757 22.8693 22.7171 22.6342 22.95 22.3834ZM25.33 10.0867C25.3151 10.0997 25.2996 10.1118 25.2844 10.1243C25.2207 10.1391 25.1589 10.163 25.1034 10.2C24.8582 10.3839 24.5964 10.5009 24.3271 10.5522C24.1136 10.5849 23.8963 10.582 23.6867 10.54C19.6224 9.76832 15.5115 9.69734 11.5658 10.3269C11.128 10.3902 10.6915 10.4609 10.2567 10.54C10.1869 10.5478 10.1171 10.5521 10.0475 10.5534C9.59192 10.5453 9.15045 10.4187 8.78336 10.1434C8.44336 9.91674 8.21671 9.57674 8.10336 9.23674L10.54 8.78339C14.79 7.99003 19.1534 7.99003 23.5166 8.78339L25.9343 9.23316C25.8089 9.55396 25.5999 9.85054 25.33 10.0867ZM14.45 1.98339H19.4934C22.9693 1.98339 25.82 4.69024 26.0511 8.10823L23.6867 7.70674C19.2101 6.91339 14.6767 6.91339 10.3134 7.70674L7.94896 8.10823C8.17986 4.69024 11.0284 1.98339 14.45 1.98339ZM9.06664 11.56C9.52 11.6734 10.03 11.73 10.54 11.6167C12.6558 11.2218 14.7996 11.0235 16.9575 11.0218C19.1157 11.0235 21.2879 11.2217 23.46 11.6167C23.6148 11.6554 23.743 11.6674 23.863 11.6713C24.2197 11.6984 24.5925 11.6452 24.9333 11.56V14.45C24.9333 16.9209 24.0857 19.1167 22.813 20.7857L22.7799 20.7967C22.7233 20.8533 22.6666 20.91 22.6099 20.9667C22.3249 21.3468 22.024 21.6934 21.7096 22.0059C20.3026 23.3167 18.6094 24.0833 17 24.0833H16.9999C16.941 24.0833 16.8823 24.0821 16.8235 24.0803C15.866 24.0473 14.884 23.7474 13.9542 23.2278C13.0315 22.6978 12.1635 21.9335 11.39 20.9666C11.3334 20.91 11.2766 20.8533 11.22 20.7966L11.1869 20.7856C9.91432 19.1165 9.06664 16.9208 9.06664 14.45V11.56ZM16.1479 25.1647L14.62 28.6167L11.5034 24.31C11.4853 24.292 11.4654 24.2741 11.4447 24.2565L10.8234 23.4033L11.05 22.3833C11.1266 22.4659 11.2044 22.5463 11.2828 22.6254C12.6161 23.9892 14.2797 24.9401 16.1479 25.1647ZM32.8666 32.0167H19.8334H1.13336V30.1467C1.13336 29.41 1.53 28.73 2.21 28.39C5.82204 26.4712 8.42217 25.5081 10.7384 25.2204L14.28 30.09C14.369 30.2236 14.4935 30.2865 14.6524 30.3076C14.6792 30.313 14.7063 30.3167 14.7333 30.3167C14.7333 30.3167 14.7899 30.3167 14.7899 30.3733C14.9599 30.3733 15.1866 30.2033 15.2433 30.0333L17.0031 26.0736L17.7529 27.7183L18.7566 29.9767C18.8133 30.1467 18.9833 30.3167 19.21 30.3167H19.2666C19.4366 30.3167 19.6066 30.2033 19.72 30.09L23.2982 25.17C25.6062 25.5183 28.2531 26.4807 31.79 28.3333C32.47 28.73 32.8666 29.41 32.8666 30.1467V32.0167Z" fill="#ED1C24"/>
<path d="M15.8666 6.51669H18.1333C18.4733 6.51669 18.6999 6.29005 18.6999 5.95005V3.11669C18.6999 2.77669 18.4733 2.55005 18.1333 2.55005H15.8666C15.5266 2.55005 15.3 2.77669 15.3 3.11669V5.95005C15.3 6.29005 15.5266 6.51669 15.8666 6.51669ZM16.4333 3.6834H17.5667V5.3834H16.4333V3.6834Z" fill="#ED1C24"/>
</g>
<defs>
<clipPath id="clip0_135_115">
<rect width="34" height="34" fill="white"/>
</clipPath>
</defs>
</svg>
