<svg width="30" height="30" viewBox="0 0 30 30" fill="none" xmlns="http://www.w3.org/2000/svg">
<g clip-path="url(#clip0_193_55)">
<path d="M17.8711 15.0029C17.8711 16.5886 16.5857 17.874 15 17.874C13.4143 17.874 12.1289 16.5886 12.1289 15.0029C12.1289 13.4172 13.4143 12.1318 15 12.1318C16.5857 12.1318 17.8711 13.4172 17.8711 15.0029Z" fill="#B8B9B9"/>
<path d="M21.7144 9.92308C21.5764 9.54909 21.3562 9.21057 21.0701 8.93271C20.7923 8.64661 20.454 8.42642 20.0797 8.28841C19.7762 8.17053 19.3203 8.03023 18.4805 7.992C17.5721 7.95058 17.2997 7.94165 14.9999 7.94165C12.6999 7.94165 12.4275 7.95035 11.5193 7.99178C10.6796 8.03023 10.2234 8.17053 9.92014 8.28841C9.54591 8.42642 9.2074 8.64661 8.92976 8.93271C8.64366 9.21057 8.42348 9.54886 8.28523 9.92308C8.16736 10.2266 8.02705 10.6827 7.98883 11.5225C7.9474 12.4307 7.93848 12.7031 7.93848 15.0031C7.93848 17.3029 7.9474 17.5753 7.98883 18.4837C8.02705 19.3235 8.16736 19.7794 8.28523 20.0829C8.42348 20.4571 8.64343 20.7954 8.92953 21.0733C9.2074 21.3594 9.54568 21.5796 9.91991 21.7176C10.2234 21.8357 10.6796 21.976 11.5193 22.0142C12.4275 22.0556 12.6997 22.0643 14.9997 22.0643C17.3 22.0643 17.5723 22.0556 18.4803 22.0142C19.3201 21.976 19.7762 21.8357 20.0797 21.7176C20.8309 21.4278 21.4247 20.8341 21.7144 20.0829C21.8323 19.7794 21.9726 19.3235 22.011 18.4837C22.0525 17.5753 22.0612 17.3029 22.0612 15.0031C22.0612 12.7031 22.0525 12.4307 22.011 11.5225C21.9728 10.6827 21.8325 10.2266 21.7144 9.92308ZM14.9999 19.4258C12.5571 19.4258 10.5768 17.4457 10.5768 15.0029C10.5768 12.56 12.5571 10.58 14.9999 10.58C17.4426 10.58 19.4229 12.56 19.4229 15.0029C19.4229 17.4457 17.4426 19.4258 14.9999 19.4258ZM19.5977 11.4387C19.0269 11.4387 18.5641 10.9759 18.5641 10.4051C18.5641 9.83427 19.0269 9.37148 19.5977 9.37148C20.1685 9.37148 20.6313 9.83427 20.6313 10.4051C20.6311 10.9759 20.1685 11.4387 19.5977 11.4387Z" fill="#B8B9B9"/>
<path d="M15 0.00292969C6.717 0.00292969 0 6.71992 0 15.0029C0 23.2859 6.717 30.0029 15 30.0029C23.283 30.0029 30 23.2859 30 15.0029C30 6.71992 23.283 0.00292969 15 0.00292969ZM23.5613 18.554C23.5197 19.4709 23.3739 20.0969 23.161 20.6449C22.7135 21.8019 21.7989 22.7165 20.6419 23.1639C20.0942 23.3768 19.468 23.5224 18.5513 23.5643C17.6328 23.6061 17.3394 23.6162 15.0002 23.6162C12.6608 23.6162 12.3676 23.6061 11.4489 23.5643C10.5322 23.5224 9.90601 23.3768 9.35829 23.1639C8.78334 22.9476 8.26286 22.6087 7.83257 22.1704C7.39449 21.7403 7.05551 21.2196 6.83922 20.6449C6.62636 20.0972 6.48056 19.4709 6.4389 18.5543C6.39656 17.6355 6.38672 17.3421 6.38672 15.0029C6.38672 12.6638 6.39656 12.3703 6.43867 11.4518C6.48033 10.5349 6.6259 9.90894 6.83876 9.36099C7.05505 8.78627 7.39426 8.26556 7.83257 7.83549C8.26263 7.39719 8.78334 7.05821 9.35806 6.84192C9.90601 6.62906 10.532 6.48349 11.4489 6.4416C12.3674 6.39972 12.6608 6.38965 15 6.38965C17.3392 6.38965 17.6326 6.39972 18.5511 6.44183C19.468 6.48349 20.094 6.62906 20.6419 6.84169C21.2167 7.05798 21.7374 7.39719 22.1677 7.83549C22.6057 8.26579 22.9449 8.78627 23.161 9.36099C23.3741 9.90894 23.5197 10.5349 23.5616 11.4518C23.6034 12.3703 23.6133 12.6638 23.6133 15.0029C23.6133 17.3421 23.6034 17.6355 23.5613 18.554Z" fill="#B8B9B9"/>
</g>
<defs>
<clipPath id="clip0_193_55">
<rect width="30" height="30" fill="white" transform="translate(0 0.00292969)"/>
</clipPath>
</defs>
</svg>
