<svg width="38" height="38" viewBox="0 0 38 38" fill="none" xmlns="http://www.w3.org/2000/svg">
<path d="M37.9467 21.1513C37.9466 21.1511 37.9466 21.151 37.9465 21.1508L30.7719 3.13615C30.6197 2.75339 30.1858 2.56653 29.803 2.7188C29.8028 2.71889 29.8025 2.71898 29.8022 2.71917L0.695971 14.309C0.577272 14.3603 0.474331 14.4421 0.397591 14.5462C0.155531 14.672 0.00261083 14.921 0 15.1937V34.5884C0 35.0003 0.333999 35.3343 0.74595 35.3343H32.0759C32.4878 35.3343 32.8218 35.0003 32.8218 34.5884V23.9959L37.5302 22.1206C37.9129 21.9679 38.0993 21.534 37.9467 21.1513ZM31.3299 33.8424H1.4919V15.9396H31.3299V33.8424ZM12.4462 14.4515L24.9364 9.47449C26.0511 10.6462 27.5957 11.3121 29.2129 11.3185L30.4586 14.4515H12.4462ZM32.8218 22.3936V15.1937C32.8218 14.7817 32.4878 14.4477 32.0759 14.4477H32.0639L30.4833 10.4778C30.4657 10.4447 30.4453 10.4132 30.4221 10.3838C30.3421 10.0245 30.0094 9.7794 29.6426 9.80942C28.1378 9.94658 26.6658 9.31271 25.7315 8.12507C25.4991 7.83816 25.0905 7.76683 24.7745 7.95797C24.7391 7.96217 24.7039 7.9687 24.6693 7.97737L9.4206 14.0494C9.23607 14.1218 9.08847 14.2653 9.01108 14.4477H4.38022L29.662 4.38114L36.2853 21.0121L32.8218 22.3936Z" fill="#ED1C24"/>
<path d="M3.51643 28.8066C4.9647 29.2347 6.09798 30.3666 6.52783 31.8143C6.6221 32.1303 6.91274 32.3468 7.24245 32.3469C7.28115 32.3445 7.31957 32.3387 7.35733 32.3298C7.3908 32.3393 7.42503 32.3463 7.45953 32.3506H25.3623C25.3931 32.3466 25.4235 32.3404 25.4533 32.332C25.826 32.4226 26.2016 32.1941 26.2923 31.8214C26.2926 31.82 26.293 31.8187 26.2933 31.8173C26.722 30.3681 27.8555 29.2346 29.3047 28.8059C29.6561 28.6985 29.8745 28.3482 29.8164 27.9853C29.8264 27.9492 29.8335 27.9122 29.838 27.8749V21.9073C29.8336 21.8699 29.8262 21.833 29.8156 21.7969C29.8741 21.4339 29.6556 21.0835 29.3039 20.9764C27.8547 20.5478 26.7215 19.4138 26.294 17.9642C26.186 17.6104 25.8324 17.3915 25.4675 17.4525C25.433 17.4429 25.3979 17.4359 25.3623 17.4316H7.45953C7.42195 17.4361 7.38474 17.4436 7.34838 17.454C6.98557 17.3962 6.63553 17.6145 6.52783 17.9657C6.09882 19.4147 4.96544 20.5478 3.51643 20.9764C3.165 21.0838 2.94662 21.434 3.00471 21.7969C2.99501 21.8332 2.98802 21.87 2.98383 21.9073V27.8749C2.98811 27.91 2.99511 27.9447 3.00471 27.9786C2.94354 28.3439 3.16239 28.698 3.51643 28.8066ZM4.47573 22.2102C5.97359 21.6086 7.16077 20.4214 7.76238 18.9235H25.0587C25.6606 20.4214 26.8481 21.6086 28.3461 22.2102V27.5721C26.8487 28.1743 25.6617 29.3613 25.0595 30.8587H7.76238C7.16012 29.3613 5.97313 28.1743 4.47573 27.5721V22.2102Z" fill="#ED1C24"/>
<path d="M16.4109 29.3667C18.8828 29.3667 20.8866 27.3629 20.8866 24.891C20.8866 22.4191 18.8828 20.4153 16.4109 20.4153C13.939 20.4153 11.9352 22.4191 11.9352 24.891C11.9376 27.3618 13.94 29.3643 16.4109 29.3667ZM16.4109 21.9072C18.0588 21.9072 19.3947 23.2431 19.3947 24.891C19.3947 26.5389 18.0588 27.8748 16.4109 27.8748C14.763 27.8748 13.4271 26.5389 13.4271 24.891C13.4271 23.2431 14.763 21.9072 16.4109 21.9072Z" fill="#ED1C24"/>
<path d="M8.20547 26.0101C8.8234 26.0101 9.3244 25.5091 9.3244 24.8911C9.3244 24.2732 8.8234 23.7722 8.20547 23.7722C7.58755 23.7722 7.08655 24.2732 7.08655 24.8911C7.08655 25.5092 7.58755 26.0101 8.20547 26.0101ZM8.20547 24.5182C8.41145 24.5182 8.57845 24.6852 8.57845 24.8911C8.57845 25.0971 8.41145 25.2641 8.20547 25.2641C7.9995 25.2641 7.8325 25.0971 7.8325 24.8911C7.8325 24.6852 7.9995 24.5182 8.20547 24.5182Z" fill="#ED1C24"/>
<path d="M24.6164 26.0101C25.2343 26.0101 25.7353 25.5091 25.7353 24.8911C25.7353 24.2732 25.2343 23.7722 24.6164 23.7722C23.9984 23.7722 23.4974 24.2732 23.4974 24.8911C23.4974 25.5092 23.9984 26.0101 24.6164 26.0101ZM24.6164 24.5182C24.8223 24.5182 24.9893 24.6852 24.9893 24.8911C24.9893 25.0971 24.8223 25.2641 24.6164 25.2641C24.4104 25.2641 24.2434 25.0971 24.2434 24.8911C24.2434 24.6852 24.4104 24.5182 24.6164 24.5182Z" fill="#ED1C24"/>
</svg>
