<svg width="34" height="34" viewBox="0 0 34 34" fill="none" xmlns="http://www.w3.org/2000/svg">
<path d="M17 1.0625C13.8826 1.08497 10.9014 2.34301 8.71041 4.56064C6.51937 6.77827 5.29738 9.77442 5.31252 12.8918C5.31252 17.0574 7.22502 21.6798 10.9969 26.63C12.6894 28.8566 14.5818 30.924 16.6505 32.8063C16.7473 32.8909 16.8715 32.9375 17 32.9375C17.1286 32.9375 17.2528 32.8909 17.3496 32.8063C19.4183 30.924 21.3107 28.8566 23.0031 26.63C26.775 21.6798 28.6875 17.0574 28.6875 12.8918C28.7027 9.77442 27.4807 6.77827 25.2896 4.56064C23.0986 2.34301 20.1174 1.08497 17 1.0625ZM17 31.6869C15.1263 29.9402 6.37502 21.3276 6.37502 12.8918C6.37502 10.0739 7.49443 7.37141 9.48701 5.37883C11.4796 3.38626 14.1821 2.26684 17 2.26684C19.8179 2.26684 22.5205 3.38626 24.513 5.37883C26.5056 7.37141 27.625 10.0739 27.625 12.8918C27.625 21.3281 18.8737 29.9402 17 31.6869Z" fill="#ED1C24"/>
<path d="M17 3.1875C15.1087 3.1875 13.2599 3.74833 11.6874 4.79907C10.1148 5.84981 8.88917 7.34327 8.16541 9.09059C7.44164 10.8379 7.25227 12.7606 7.62125 14.6156C7.99022 16.4705 8.90096 18.1744 10.2383 19.5117C11.5756 20.849 13.2795 21.7598 15.1345 22.1288C16.9894 22.4977 18.9121 22.3084 20.6594 21.5846C22.4067 20.8608 23.9002 19.6352 24.9509 18.0626C26.0017 16.4901 26.5625 14.6413 26.5625 12.75C26.5596 10.2148 25.5511 7.78423 23.7585 5.99155C21.9658 4.19888 19.5352 3.19045 17 3.1875ZM17 21.25C15.3189 21.25 13.6755 20.7515 12.2777 19.8175C10.8798 18.8835 9.79037 17.556 9.14703 16.0028C8.50368 14.4496 8.33536 12.7406 8.66333 11.0917C8.9913 9.44289 9.80085 7.92834 10.9896 6.73959C12.1783 5.55085 13.6929 4.7413 15.3417 4.41333C16.9906 4.08535 18.6996 4.25368 20.2528 4.89702C21.806 5.54037 23.1335 6.62984 24.0675 8.02765C25.0015 9.42547 25.5 11.0689 25.5 12.75C25.4973 15.0035 24.6009 17.164 23.0075 18.7575C21.414 20.3509 19.2535 21.2473 17 21.25Z" fill="#ED1C24"/>
<path d="M22.3125 9.03125H11.6875C11.5466 9.03125 11.4115 9.08722 11.3118 9.18685C11.2122 9.28648 11.1562 9.4216 11.1562 9.5625V15.9375C11.1562 16.0784 11.2122 16.2135 11.3118 16.3132C11.4115 16.4128 11.5466 16.4688 11.6875 16.4688H22.3125C22.4534 16.4688 22.5885 16.4128 22.6882 16.3132C22.7878 16.2135 22.8438 16.0784 22.8438 15.9375V9.5625C22.8438 9.4216 22.7878 9.28648 22.6882 9.18685C22.5885 9.08722 22.4534 9.03125 22.3125 9.03125ZM20.3947 10.0938L17 12.1306L13.6053 10.0938H20.3947ZM12.2188 15.4062V10.5007L16.7264 13.2053C16.809 13.2549 16.9036 13.2811 17 13.2811C17.0964 13.2811 17.191 13.2549 17.2736 13.2053L21.7812 10.5007V15.4062H12.2188Z" fill="#ED1C24"/>
</svg>
