<svg width="30" height="30" viewBox="0 0 30 30" fill="none" xmlns="http://www.w3.org/2000/svg">
<g clip-path="url(#clip0_193_52)">
<path d="M13.1318 17.8132L18.0111 15.003L13.1318 12.1927V17.8132Z" fill="#B8B9B9"/>
<path d="M15 0.00292969C6.717 0.00292969 0 6.71992 0 15.0029C0 23.2859 6.717 30.0029 15 30.0029C23.283 30.0029 30 23.2859 30 15.0029C30 6.71992 23.283 0.00292969 15 0.00292969ZM24.3727 15.0183C24.3727 15.0183 24.3727 18.0603 23.9868 19.5272C23.7705 20.3302 23.1374 20.9632 22.3345 21.1793C20.8676 21.5654 15 21.5654 15 21.5654C15 21.5654 9.14772 21.5654 7.66548 21.164C6.86256 20.9479 6.22948 20.3146 6.01318 19.5117C5.62706 18.0603 5.62706 15.0029 5.62706 15.0029C5.62706 15.0029 5.62706 11.9611 6.01318 10.4942C6.22925 9.69127 6.8779 9.04262 7.66548 8.82655C9.13239 8.44043 15 8.44043 15 8.44043C15 8.44043 20.8676 8.44043 22.3345 8.84189C23.1374 9.05795 23.7705 9.69127 23.9868 10.4942C24.3883 11.9611 24.3727 15.0183 24.3727 15.0183Z" fill="#B8B9B9"/>
</g>
<defs>
<clipPath id="clip0_193_52">
<rect width="30" height="30" fill="white" transform="translate(0 0.00292969)"/>
</clipPath>
</defs>
</svg>
